<svg width="60" height="60" viewBox="0 0 60 60" fill="none" xmlns="http://www.w3.org/2000/svg">
<path d="M57.8625 13.447L50.0889 6.52057C49.4801 5.96733 48.521 5.56763 47.6007 5.56763H12.4125C12.0683 5.56763 11.733 5.62939 11.4066 5.71763C11.351 5.71763 11.2822 5.75292 11.2654 5.75292C10.7236 5.95233 10.3875 6.10586 9.9154 6.51174C9.63658 6.76057 2.30863 13.2882 2.04481 13.5529C0.66834 14.8376 0.527164 16.9791 1.61246 18.4588C28.5613 55.0376 27.0913 53.1997 27.7478 53.6647C29.0907 54.7032 30.9683 54.667 32.2478 53.6823C32.9536 53.1529 31.0778 55.5459 58.383 18.4588C59.5989 16.8362 59.1904 14.6241 57.8625 13.447ZM48.633 7.62351C48.8836 7.78233 56.7454 14.8129 56.8654 14.9559H41.6448L48.633 7.62351ZM46.4713 7.33233L39.5183 14.6294L32.1419 7.33233H46.4713ZM37.3389 14.9559H22.6566L29.9978 7.6941L37.3389 14.9559ZM27.8536 7.33233L20.4772 14.6294L13.5242 7.33233H27.8536ZM3.3154 14.7706C3.48305 14.6206 11.1728 7.73998 11.3713 7.63233L18.3507 14.9559H3.13893C3.19187 14.8941 3.24481 14.8235 3.3154 14.7706ZM3.03305 17.4088C2.88305 17.2059 2.77716 16.9765 2.7154 16.7382H19.8066L26.8742 49.7735L3.03305 17.4088ZM30.7566 52.4559C30.2942 52.7329 29.6801 52.7206 29.2566 52.4559L21.6066 16.7382H38.3889L30.7566 52.4559ZM56.9713 17.4088H56.9625L33.1301 49.7735L40.1978 16.7382H57.2889C57.2272 16.9765 57.1213 17.2059 56.9713 17.4088Z" fill="#1F1F1F"/>
</svg>
