<svg width="60" height="60" viewBox="0 0 60 60" fill="none" xmlns="http://www.w3.org/2000/svg">
<g clip-path="url(#clip0_7032_121)">
<path d="M14.8782 21.6094V38.37L30 46.7512L45.1219 38.37V21.6094L30 13.23L14.8782 21.6094ZM43.2469 37.2656L30 44.6081L16.7532 37.2675V22.7156L30 15.3731L43.2469 22.7137V37.2656Z" fill="#1F1F1F"/>
<path d="M60 6.96376C60.0108 5.21342 59.3608 3.52346 58.1798 2.2315C56.9989 0.93954 55.374 0.140712 53.6297 -0.00539301C51.8854 -0.151498 50.1503 0.365878 48.7708 1.44337C47.3914 2.52087 46.4693 4.07914 46.1888 5.80688H13.8113C13.5307 4.07914 12.6086 2.52087 11.2292 1.44337C9.84976 0.365878 8.11459 -0.151498 6.37033 -0.00539301C4.62607 0.140712 3.00115 0.93954 1.8202 2.2315C0.639254 3.52346 -0.0107637 5.21342 9.73666e-06 6.96376C0.0019905 8.60745 0.58642 10.1973 1.64952 11.4509C2.71262 12.7045 4.1856 13.5408 5.80688 13.8113V46.1906C4.18575 46.4607 2.71281 47.2966 1.64968 48.5499C0.586555 49.8032 0.00205859 51.3928 9.73666e-06 53.0363C9.73666e-06 54.8832 0.733688 56.6544 2.03964 57.9604C3.3456 59.2663 5.11686 60 6.96376 60C10.1381 60 12.7856 57.8625 13.6238 54.96H46.3744C47.2144 57.8625 49.8619 60 53.0363 60C54.8832 60 56.6544 59.2663 57.9604 57.9604C59.2663 56.6544 60 54.8832 60 53.0363C60 49.8619 57.8625 47.2144 54.96 46.3763V13.6238C57.8625 12.7856 60 10.1381 60 6.96376ZM53.0363 1.87501C54.3856 1.876 55.6793 2.41245 56.6335 3.36656C57.5876 4.32067 58.124 5.61444 58.125 6.96376C58.1235 8.31292 57.5869 9.6064 56.6329 10.5604C55.6789 11.5144 54.3854 12.051 53.0363 12.0525C50.2313 12.0525 47.9475 9.77063 47.9475 6.96376C47.9475 4.15688 50.2313 1.87501 53.0363 1.87501ZM1.87501 6.96376C1.876 5.61444 2.41246 4.32067 3.36657 3.36656C4.32068 2.41245 5.61444 1.876 6.96376 1.87501C8.31292 1.8765 9.6064 2.41311 10.5604 3.36711C11.5144 4.32111 12.051 5.61459 12.0525 6.96376C12.0525 9.76876 9.77064 12.0525 6.96376 12.0525C4.15689 12.0525 1.87501 9.76876 1.87501 6.96376ZM6.96376 58.125C5.61444 58.124 4.32068 57.5876 3.36657 56.6334C2.41246 55.6793 1.876 54.3856 1.87501 53.0363C1.8765 51.6871 2.41311 50.3936 3.36711 49.4396C4.32112 48.4856 5.6146 47.949 6.96376 47.9475C9.76876 47.9475 12.0525 50.2294 12.0525 53.0363C12.0525 55.8431 9.76876 58.125 6.96376 58.125ZM58.125 53.0363C58.124 54.3856 57.5876 55.6793 56.6335 56.6334C55.6793 57.5876 54.3856 58.124 53.0363 58.125C51.6871 58.1235 50.3936 57.5869 49.4396 56.6329C48.4856 55.6789 47.949 54.3854 47.9475 53.0363C47.9475 50.2313 50.2294 47.9475 53.0363 47.9475C55.8431 47.9475 58.125 50.2313 58.125 53.0363ZM53.085 46.0781C53.0681 46.0781 53.0531 46.0725 53.0363 46.0725C51.1894 46.0725 49.4181 46.8062 48.1121 48.1121C46.8062 49.4181 46.0725 51.1894 46.0725 53.0363C46.0725 53.0531 46.0781 53.0681 46.0781 53.085H13.9219C13.9219 53.0681 13.9275 53.0531 13.9275 53.0363C13.9275 49.4363 11.1863 46.5094 7.68189 46.1456V13.8544C9.26329 13.6913 10.7403 12.9886 11.8644 11.8644C12.9886 10.7403 13.6913 9.26328 13.8544 7.68188H46.1456C46.5094 11.1863 49.4363 13.9275 53.0363 13.9275C53.0531 13.9275 53.0681 13.9219 53.085 13.9219V46.0781Z" fill="#1F1F1F"/>
</g>
<defs>
<clipPath id="clip0_7032_121">
<rect width="60" height="60" fill="white"/>
</clipPath>
</defs>
</svg>
