<svg width="60" height="60" viewBox="0 0 60 60" fill="none" xmlns="http://www.w3.org/2000/svg">
<g clip-path="url(#clip0_7032_100)">
<mask id="mask0_7032_100" style="mask-type:luminance" maskUnits="userSpaceOnUse" x="0" y="0" width="60" height="60">
<path d="M0 5.72205e-05H59.9998V59.9999H0V5.72205e-05Z" fill="white"/>
<path fill-rule="evenodd" clip-rule="evenodd" d="M59.9998 5.34058e-05H0V59.9999H59.9998V5.34058e-05ZM58.242 58.2421H1.75781V1.75787H58.242V58.2421Z" fill="white"/>
</mask>
<g mask="url(#mask0_7032_100)">
<path fill-rule="evenodd" clip-rule="evenodd" d="M43.5485 58.9551C43.7777 59.1203 44.0723 59.1652 44.3403 59.0759L58.4028 54.3884C58.7617 54.2687 59.0037 53.9329 59.0037 53.5546V32.3437C59.0037 32.0612 58.8679 31.7959 58.6387 31.6307C58.4096 31.4655 58.1149 31.4206 57.8469 31.5099L43.7844 36.1974C43.4255 36.317 43.1835 36.6529 43.1835 37.0312V58.2421C43.1835 58.5246 43.3193 58.7899 43.5485 58.9551ZM44.9413 57.0226V37.6647L57.2459 33.5631V52.9211L44.9413 57.0226Z" fill="#1F1F1F"/>
<path fill-rule="evenodd" clip-rule="evenodd" d="M44.5763 58.9551C44.8055 58.7899 44.9413 58.5246 44.9413 58.2421V37.0312C44.9413 36.6529 44.6992 36.317 44.3403 36.1974L30.2779 31.5099C30.0099 31.4206 29.7152 31.4655 29.486 31.6307C29.2568 31.7959 29.121 32.0612 29.121 32.3437V53.5546C29.121 53.9329 29.3631 54.2687 29.722 54.3884L43.7845 59.0759C44.0525 59.1652 44.3471 59.1203 44.5763 58.9551ZM30.8788 52.9211V33.5631L43.1835 37.6647V57.0226L30.8788 52.9211Z" fill="#1F1F1F"/>
<path fill-rule="evenodd" clip-rule="evenodd" d="M43.7845 37.8649C43.9649 37.9251 44.1599 37.9251 44.3403 37.8649L58.4028 33.1774C58.7617 33.0578 59.0038 32.722 59.0038 32.3436C59.0038 31.9653 58.7617 31.6295 58.4028 31.5098L44.3403 26.8224C44.1599 26.7622 43.9649 26.7622 43.7845 26.8224L29.722 31.5098C29.3631 31.6295 29.121 31.9653 29.121 32.3436C29.121 32.722 29.3631 33.0578 29.722 33.1774L43.7845 37.8649ZM32.7793 32.3436L44.0624 28.5826L55.3455 32.3436L44.0624 36.1047L32.7793 32.3436Z" fill="#1F1F1F"/>
<path fill-rule="evenodd" clip-rule="evenodd" d="M15.4235 58.9551C15.6527 59.1203 15.9474 59.1652 16.2154 59.0759L30.2778 54.3884C30.6367 54.2687 30.8788 53.9329 30.8788 53.5546V32.3437C30.8788 32.0612 30.743 31.7959 30.5138 31.6307C30.2846 31.4655 29.99 31.4206 29.722 31.5099L15.6595 36.1974C15.3006 36.317 15.0585 36.6529 15.0585 37.0312V58.2421C15.0585 58.5246 15.1943 58.7899 15.4235 58.9551ZM16.8163 57.0226V37.6647L29.121 33.5631V52.9211L16.8163 57.0226Z" fill="#1F1F1F"/>
<path fill-rule="evenodd" clip-rule="evenodd" d="M16.4514 58.9551C16.6806 58.7899 16.8164 58.5246 16.8164 58.2421V37.0312C16.8164 36.6529 16.5743 36.317 16.2154 36.1974L2.15293 31.5099C1.88491 31.4206 1.59029 31.4655 1.36109 31.6307C1.1319 31.7959 0.996094 32.0612 0.996094 32.3437V53.5546C0.996094 53.9329 1.23817 54.2687 1.59707 54.3884L15.6595 59.0759C15.9275 59.1652 16.2222 59.1203 16.4514 58.9551ZM2.75391 52.9211V33.5631L15.0586 37.6647V57.0226L2.75391 52.9211Z" fill="#1F1F1F"/>
<path fill-rule="evenodd" clip-rule="evenodd" d="M15.6595 37.8649C15.8399 37.9251 16.035 37.9251 16.2154 37.8649L30.2779 33.1774C30.6367 33.0578 30.8788 32.722 30.8788 32.3436C30.8788 31.9653 30.6367 31.6295 30.2779 31.5098L16.2154 26.8224C16.035 26.7622 15.8399 26.7622 15.6595 26.8224L1.59707 31.5098C1.23817 31.6295 0.996094 31.9653 0.996094 32.3436C0.996094 32.722 1.23817 33.0578 1.59707 33.1774L15.6595 37.8649ZM4.65435 32.3436L15.9375 28.5826L27.2206 32.3436L15.9375 36.1047L4.65435 32.3436Z" fill="#1F1F1F"/>
<path fill-rule="evenodd" clip-rule="evenodd" d="M29.486 33.0567C29.7152 33.2219 30.0099 33.2669 30.2779 33.1775L44.3403 28.4901C44.6992 28.3704 44.9413 28.0346 44.9413 27.6563V6.44538C44.9413 6.16286 44.8055 5.89757 44.5763 5.73238C44.3471 5.56719 44.0525 5.52224 43.7845 5.61158L29.722 10.2991C29.3631 10.4187 29.121 10.7546 29.121 11.1329V32.3437C29.121 32.6263 29.2568 32.8916 29.486 33.0567ZM30.8788 31.1243V11.7663L43.1835 7.6648V27.0228L30.8788 31.1243Z" fill="#1F1F1F"/>
<path fill-rule="evenodd" clip-rule="evenodd" d="M30.5138 33.0567C30.743 32.8916 30.8788 32.6263 30.8788 32.3437V11.1329C30.8788 10.7546 30.6367 10.4187 30.2778 10.2991L16.2154 5.61158C15.9474 5.52224 15.6527 5.56719 15.4235 5.73238C15.1943 5.89757 15.0585 6.16286 15.0585 6.44538V27.6563C15.0585 28.0346 15.3006 28.3704 15.6595 28.4901L29.722 33.1775C29.99 33.2669 30.2846 33.2219 30.5138 33.0567ZM16.8163 27.0228V7.6648L29.121 11.7663V31.1243L16.8163 27.0228Z" fill="#1F1F1F"/>
<path fill-rule="evenodd" clip-rule="evenodd" d="M29.722 11.9666C29.9024 12.0268 30.0974 12.0268 30.2778 11.9666L44.3403 7.27913C44.6992 7.1595 44.9413 6.82363 44.9413 6.44533C44.9413 6.06702 44.6992 5.73115 44.3403 5.61152L30.2778 0.924037C30.0974 0.8639 29.9024 0.8639 29.722 0.924037L15.6595 5.61152C15.3006 5.73115 15.0585 6.06702 15.0585 6.44533C15.0585 6.82363 15.3006 7.1595 15.6595 7.27913L29.722 11.9666ZM18.7168 6.44533L29.9999 2.68429L41.283 6.44533L29.9999 10.2064L18.7168 6.44533Z" fill="#1F1F1F"/>
</g>
</g>
<defs>
<clipPath id="clip0_7032_100">
<rect width="60" height="60" fill="white"/>
</clipPath>
</defs>
</svg>
