<svg width="60" height="60" viewBox="0 0 60 60" fill="none" xmlns="http://www.w3.org/2000/svg">
<g clip-path="url(#clip0_7375_85)">
<mask id="mask0_7375_85" style="mask-type:luminance" maskUnits="userSpaceOnUse" x="0" y="0" width="60" height="60">
<path d="M0 5.72205e-05H59.9998V59.9999H0V5.72205e-05Z" fill="white"/>
<path fill-rule="evenodd" clip-rule="evenodd" d="M59.9998 5.34058e-05H0V59.9999H59.9998V5.34058e-05ZM58.242 58.2421H1.75781V1.75787H58.242V58.2421Z" fill="white"/>
</mask>
<g mask="url(#mask0_7375_85)">
<path fill-rule="evenodd" clip-rule="evenodd" d="M43.5486 58.9551C43.7778 59.1203 44.0724 59.1652 44.3404 59.0759L58.4029 54.3884C58.7618 54.2687 59.0039 53.9329 59.0039 53.5546V32.3437C59.0039 32.0612 58.8681 31.7959 58.6389 31.6307C58.4097 31.4655 58.115 31.4206 57.847 31.5099L43.7846 36.1974C43.4257 36.317 43.1836 36.6529 43.1836 37.0312V58.2421C43.1836 58.5246 43.3194 58.7899 43.5486 58.9551ZM44.9414 57.0226V37.6647L57.2461 33.5631V52.9211L44.9414 57.0226Z" fill="#1F1F1F"/>
<path fill-rule="evenodd" clip-rule="evenodd" d="M44.5764 58.9551C44.8056 58.7899 44.9414 58.5246 44.9414 58.2421V37.0312C44.9414 36.6529 44.6993 36.317 44.3404 36.1974L30.2779 31.5099C30.0099 31.4206 29.7153 31.4655 29.4861 31.6307C29.2569 31.7959 29.1211 32.0612 29.1211 32.3437V53.5546C29.1211 53.9329 29.3632 54.2687 29.7221 54.3884L43.7845 59.0759C44.0525 59.1652 44.3472 59.1203 44.5764 58.9551ZM30.8789 52.9211V33.5631L43.1836 37.6647V57.0226L30.8789 52.9211Z" fill="#1F1F1F"/>
<path fill-rule="evenodd" clip-rule="evenodd" d="M43.7845 37.8649C43.9649 37.9251 44.16 37.9251 44.3404 37.8649L58.4029 33.1774C58.7617 33.0578 59.0038 32.722 59.0038 32.3436C59.0038 31.9653 58.7617 31.6295 58.4029 31.5098L44.3404 26.8224C44.16 26.7622 43.9649 26.7622 43.7845 26.8224L29.7221 31.5098C29.3632 31.6295 29.1211 31.9653 29.1211 32.3436C29.1211 32.722 29.3632 33.0578 29.7221 33.1774L43.7845 37.8649ZM32.7793 32.3436L44.0625 28.5826L55.3456 32.3436L44.0625 36.1047L32.7793 32.3436Z" fill="#1F1F1F"/>
<path fill-rule="evenodd" clip-rule="evenodd" d="M15.4236 58.9551C15.6528 59.1203 15.9474 59.1652 16.2154 59.0759L30.2779 54.3884C30.6368 54.2687 30.8789 53.9329 30.8789 53.5546V32.3437C30.8789 32.0612 30.7431 31.7959 30.5139 31.6307C30.2847 31.4655 29.99 31.4206 29.722 31.5099L15.6596 36.1974C15.3007 36.317 15.0586 36.6529 15.0586 37.0312V58.2421C15.0586 58.5246 15.1944 58.7899 15.4236 58.9551ZM16.8164 57.0226V37.6647L29.1211 33.5631V52.9211L16.8164 57.0226Z" fill="#1F1F1F"/>
<path fill-rule="evenodd" clip-rule="evenodd" d="M16.4514 58.9551C16.6806 58.7899 16.8164 58.5246 16.8164 58.2421V37.0312C16.8164 36.6529 16.5743 36.317 16.2154 36.1974L2.15293 31.5099C1.88491 31.4206 1.59029 31.4655 1.36109 31.6307C1.1319 31.7959 0.996094 32.0612 0.996094 32.3437V53.5546C0.996094 53.9329 1.23817 54.2687 1.59707 54.3884L15.6595 59.0759C15.9275 59.1652 16.2222 59.1203 16.4514 58.9551ZM2.75391 52.9211V33.5631L15.0586 37.6647V57.0226L2.75391 52.9211Z" fill="#1F1F1F"/>
<path fill-rule="evenodd" clip-rule="evenodd" d="M15.6595 37.8649C15.8399 37.9251 16.035 37.9251 16.2154 37.8649L30.2779 33.1774C30.6367 33.0578 30.8788 32.722 30.8788 32.3436C30.8788 31.9653 30.6367 31.6295 30.2779 31.5098L16.2154 26.8224C16.035 26.7622 15.8399 26.7622 15.6595 26.8224L1.59707 31.5098C1.23817 31.6295 0.996094 31.9653 0.996094 32.3436C0.996094 32.722 1.23817 33.0578 1.59707 33.1774L15.6595 37.8649ZM4.65435 32.3436L15.9375 28.5826L27.2206 32.3436L15.9375 36.1047L4.65435 32.3436Z" fill="#1F1F1F"/>
<path fill-rule="evenodd" clip-rule="evenodd" d="M29.4861 33.0567C29.7153 33.2219 30.0099 33.2669 30.2779 33.1775L44.3404 28.4901C44.6993 28.3704 44.9414 28.0346 44.9414 27.6563V6.44538C44.9414 6.16286 44.8056 5.89757 44.5764 5.73238C44.3472 5.56719 44.0525 5.52224 43.7845 5.61158L29.7221 10.2991C29.3632 10.4187 29.1211 10.7546 29.1211 11.1329V32.3437C29.1211 32.6263 29.2569 32.8916 29.4861 33.0567ZM30.8789 31.1243V11.7663L43.1836 7.6648V27.0228L30.8789 31.1243Z" fill="#1F1F1F"/>
<path fill-rule="evenodd" clip-rule="evenodd" d="M30.5139 33.0567C30.7431 32.8916 30.8789 32.6263 30.8789 32.3437V11.1329C30.8789 10.7546 30.6368 10.4187 30.2779 10.2991L16.2154 5.61158C15.9474 5.52224 15.6528 5.56719 15.4236 5.73238C15.1944 5.89757 15.0586 6.16286 15.0586 6.44538V27.6563C15.0586 28.0346 15.3007 28.3704 15.6596 28.4901L29.722 33.1775C29.99 33.2669 30.2847 33.2219 30.5139 33.0567ZM16.8164 27.0228V7.6648L29.1211 11.7663V31.1243L16.8164 27.0228Z" fill="#1F1F1F"/>
<path fill-rule="evenodd" clip-rule="evenodd" d="M29.722 11.9666C29.9024 12.0268 30.0975 12.0268 30.2779 11.9666L44.3404 7.27913C44.6992 7.1595 44.9413 6.82363 44.9413 6.44533C44.9413 6.06702 44.6992 5.73115 44.3404 5.61152L30.2779 0.924037C30.0975 0.8639 29.9024 0.8639 29.722 0.924037L15.6596 5.61152C15.3007 5.73115 15.0586 6.06702 15.0586 6.44533C15.0586 6.82363 15.3007 7.1595 15.6596 7.27913L29.722 11.9666ZM18.7168 6.44533L30 2.68429L41.2831 6.44533L30 10.2064L18.7168 6.44533Z" fill="#1F1F1F"/>
</g>
</g>
<defs>
<clipPath id="clip0_7375_85">
<rect width="60" height="60" fill="white"/>
</clipPath>
</defs>
</svg>
