<svg width="50" height="50" viewBox="0 0 50 50" fill="none" xmlns="http://www.w3.org/2000/svg">
<path d="M9.20616 16.5959C9.20616 16.62 9.19199 16.6417 9.19199 16.6667C9.19715 16.7075 9.20523 16.7479 9.21616 16.7875C9.45902 20.807 11.2204 24.5839 14.1437 27.3534C16.2897 29.3935 17.5033 32.2257 17.5003 35.1867V35.8334C16.5123 35.829 15.6152 36.4094 15.2143 37.3124C14.8134 38.2154 14.9845 39.2701 15.6503 40C14.9845 40.73 14.8134 41.7846 15.2143 42.6876C15.6152 43.5907 16.5123 44.1711 17.5003 44.1667H18.3912C18.8087 47.4991 21.6418 49.9995 25.0003 49.9995C28.3588 49.9995 31.192 47.4991 31.6095 44.1667H32.5003C33.4883 44.1711 34.3854 43.5907 34.7863 42.6876C35.1873 41.7846 35.0162 40.73 34.3503 40C35.0162 39.2701 35.1873 38.2154 34.7863 37.3124C34.3854 36.4094 33.4883 35.829 32.5003 35.8334V35.1867C32.499 32.2255 33.7134 29.3936 35.8595 27.3534C40.3465 23.1249 41.9709 16.6764 40.0225 10.8269C38.0742 4.97742 32.9075 0.790875 26.7812 0.0975189C25.9335 0.0111333 25.0803 -0.0089277 24.2295 0.0375189C24.2078 0.0358523 24.1887 0.0250189 24.167 0.0250189C24.1338 0.0295145 24.101 0.0361957 24.0687 0.0450189C20.4939 0.235473 17.0929 1.64753 14.4345 4.04502C11.0862 7.0495 9.17138 11.3347 9.16699 15.8334C9.16699 16.0892 9.19449 16.3409 9.20616 16.5959ZM15.2895 26.1409C12.8582 23.8692 11.3155 20.8059 10.9378 17.5H13.9753C14.0159 17.4949 14.056 17.4869 14.0953 17.4759C14.1556 17.4702 14.2151 17.4582 14.2728 17.44C14.3295 17.4144 14.3832 17.3826 14.4328 17.345C14.4679 17.3273 14.5016 17.307 14.5337 17.2842C14.5395 17.2842 14.5412 17.2734 14.5462 17.2684C14.591 17.2202 14.6302 17.1671 14.6628 17.11C14.689 17.0765 14.7127 17.0412 14.7337 17.0042C14.7489 16.9594 14.7604 16.9134 14.7678 16.8667C14.7866 16.8082 14.7989 16.7478 14.8045 16.6867C14.8045 16.68 14.8045 16.6742 14.8045 16.6667C14.7995 16.6261 14.7912 16.5859 14.7795 16.5467C14.7748 16.4863 14.7627 16.4267 14.7437 16.3692C14.7186 16.3122 14.6867 16.2585 14.6487 16.2092C14.6311 16.1739 14.611 16.1399 14.5887 16.1075C14.3157 15.8033 14.1655 15.4087 14.167 15C14.167 14.0795 14.9132 13.3334 15.8337 13.3334C16.7541 13.3334 17.5003 14.0795 17.5003 15C17.5007 15.4092 17.3489 15.804 17.0745 16.1075C17.0518 16.1398 17.0317 16.1737 17.0145 16.2092C16.9767 16.2586 16.9448 16.3123 16.9195 16.3692C16.9004 16.4267 16.8884 16.4863 16.8837 16.5467C16.872 16.5859 16.8636 16.6261 16.8587 16.6667V16.6867C16.8642 16.7481 16.8765 16.8088 16.8953 16.8675C16.9028 16.914 16.9142 16.9597 16.9295 17.0042C16.9505 17.0416 16.9744 17.0773 17.0012 17.1109C17.0333 17.1678 17.0722 17.2207 17.117 17.2684C17.122 17.2734 17.1237 17.28 17.1295 17.2842C17.1697 17.3149 17.213 17.3415 17.2587 17.3634C17.2965 17.3918 17.337 17.4167 17.3795 17.4375C17.4773 17.4779 17.582 17.4992 17.6878 17.5H23.3337V24.1667C23.3387 24.2072 23.3468 24.2473 23.3578 24.2867C23.362 24.4107 23.4081 24.5297 23.4887 24.6242C23.5065 24.6595 23.5268 24.6934 23.5495 24.7259C23.5495 24.7309 23.5603 24.7325 23.5653 24.7375C23.6135 24.7829 23.6669 24.8224 23.7245 24.855C23.7579 24.8809 23.793 24.9046 23.8295 24.9258C23.8744 24.9408 23.9203 24.9523 23.967 24.96C24.0255 24.9785 24.0859 24.9905 24.147 24.9959H24.167C24.2664 24.9758 24.3659 24.9558 24.4653 24.9359C24.5219 24.9106 24.5754 24.8787 24.6245 24.8409C24.6598 24.823 24.6937 24.8027 24.7262 24.78C25.0304 24.5072 25.425 24.3569 25.8337 24.3584C26.7541 24.3584 27.5003 25.1045 27.5003 26.025C27.5003 26.9455 26.7541 27.6917 25.8337 27.6917C25.4246 27.6925 25.03 27.5406 24.727 27.2659C24.6934 27.2421 24.658 27.2209 24.6212 27.2025C24.5726 27.1663 24.5204 27.1353 24.4653 27.11C24.4063 27.0912 24.3454 27.0789 24.2837 27.0733C24.2454 27.0626 24.2064 27.0548 24.167 27.05C24.1605 27.051 24.1541 27.0524 24.1478 27.0542C24.0821 27.0591 24.0172 27.072 23.9545 27.0925C23.9127 27.0997 23.8715 27.11 23.8312 27.1234C23.7895 27.1458 23.7501 27.1724 23.7137 27.2025C23.6607 27.2331 23.6112 27.2694 23.5662 27.3109C23.5612 27.3167 23.5545 27.3183 23.5495 27.3233C23.5252 27.3569 23.504 27.3926 23.4862 27.43C23.4495 27.478 23.4184 27.53 23.3937 27.585C23.3744 27.6445 23.362 27.706 23.357 27.7683C23.3463 27.806 23.3385 27.8445 23.3337 27.8834V35.8334H19.167V35.1867C19.1699 31.7665 17.7666 28.4956 15.2862 26.1409H15.2895ZM25.0003 48.3333C22.5614 48.3303 20.4794 46.5709 20.0695 44.1667H29.9312C29.5213 46.5709 27.4392 48.3303 25.0003 48.3333ZM32.5003 42.5H17.5003C17.0401 42.5 16.667 42.1269 16.667 41.6667C16.667 41.2064 17.0401 40.8333 17.5003 40.8333H32.5003C32.9606 40.8333 33.3337 41.2064 33.3337 41.6667C33.3337 42.1269 32.9606 42.5 32.5003 42.5ZM33.3337 38.3334C33.3337 38.7936 32.9606 39.1667 32.5003 39.1667H17.5003C17.0401 39.1667 16.667 38.7936 16.667 38.3334C16.667 37.8731 17.0401 37.5 17.5003 37.5H32.5003C32.9606 37.5 33.3337 37.8731 33.3337 38.3334ZM34.717 26.1383C32.236 28.494 30.8319 31.7655 30.8337 35.1867V35.8334H25.0003V29.2392C25.2719 29.3144 25.5519 29.3545 25.8337 29.3584C27.1372 29.3774 28.3323 28.6347 28.8924 27.4574C29.4525 26.2802 29.2748 24.8844 28.4377 23.885C27.6005 22.8855 26.2576 22.4659 25.0003 22.8109V17.5H29.2862C28.9134 18.8563 29.4321 20.3005 30.5826 21.1098C31.733 21.919 33.2676 21.919 34.4181 21.1098C35.5685 20.3005 36.0872 18.8563 35.7145 17.5H39.0712C38.6888 20.8043 37.1458 23.8656 34.717 26.1383ZM26.6003 1.75419C33.1262 2.50614 38.2842 7.63657 39.0712 14.1584C39.1349 14.7144 39.1669 15.2737 39.167 15.8334H34.3587C34.3189 15.838 34.2796 15.8461 34.2412 15.8575C34.18 15.8623 34.1195 15.8743 34.0612 15.8934C33.9742 15.9452 33.8872 15.9971 33.8003 16.0492C33.7945 16.0492 33.7928 16.06 33.7878 16.065C33.743 16.1126 33.7041 16.1655 33.672 16.2225C33.6453 16.2561 33.6213 16.2918 33.6003 16.3292C33.585 16.3737 33.5736 16.4194 33.5662 16.4659C33.5473 16.5246 33.535 16.5852 33.5295 16.6467C33.5295 16.6534 33.5253 16.6592 33.5253 16.6667C33.5303 16.7073 33.5386 16.7475 33.5503 16.7867C33.5551 16.8471 33.5671 16.9067 33.5862 16.9642C33.6114 17.0211 33.6433 17.0748 33.6812 17.1242C33.6984 17.1596 33.7185 17.1936 33.7412 17.2259C34.0156 17.5294 34.1674 17.9241 34.167 18.3334C34.167 19.2538 33.4208 20 32.5003 20C31.5799 20 30.8337 19.2538 30.8337 18.3334C30.8333 17.9241 30.9851 17.5294 31.2595 17.2259C31.2819 17.1934 31.3019 17.1594 31.3195 17.1242C31.3575 17.0749 31.3894 17.0212 31.4145 16.9642C31.4336 16.9067 31.4456 16.8471 31.4503 16.7867C31.462 16.7475 31.4704 16.7073 31.4753 16.6667C31.4753 16.6592 31.4712 16.6534 31.4712 16.6467C31.4655 16.5855 31.4532 16.5252 31.4345 16.4667C31.427 16.42 31.4156 16.374 31.4003 16.3292C31.3793 16.2922 31.3557 16.2568 31.3295 16.2234C31.2968 16.1663 31.2577 16.1131 31.2128 16.065C31.2078 16.06 31.2062 16.0534 31.2003 16.0492C31.168 16.0264 31.134 16.006 31.0987 15.9884C31.0493 15.9509 30.9959 15.919 30.9395 15.8934C30.8811 15.8743 30.8207 15.8623 30.7595 15.8575C30.7211 15.8461 30.6818 15.838 30.642 15.8334H25.0003V10.1917C24.9952 10.1511 24.9872 10.111 24.9762 10.0717C24.971 10.0114 24.959 9.9518 24.9403 9.89419C24.9149 9.83738 24.883 9.7837 24.8453 9.73418C24.8275 9.69891 24.8071 9.66493 24.7845 9.63252C24.7845 9.62752 24.7737 9.62585 24.7687 9.62085C24.7217 9.57656 24.6697 9.53796 24.6137 9.50585C24.5793 9.47857 24.5428 9.45405 24.5045 9.43252C24.4607 9.4179 24.4159 9.40675 24.3703 9.39919C24.311 9.38043 24.2498 9.36813 24.1878 9.36252C24.1803 9.36252 24.1745 9.36252 24.167 9.36252C24.1262 9.36752 24.0858 9.37559 24.0462 9.38668C23.9862 9.39235 23.9269 9.40436 23.8695 9.42252C23.8123 9.44809 23.7584 9.48025 23.7087 9.51835C23.6735 9.53562 23.6398 9.55568 23.6078 9.57835C23.3036 9.8512 22.909 10.0015 22.5003 10C21.5799 10 20.8337 9.25383 20.8337 8.33335C20.8337 7.41288 21.5799 6.66669 22.5003 6.66669C22.9095 6.66639 23.3042 6.81815 23.6078 7.09252C23.6402 7.11516 23.6742 7.13549 23.7095 7.15335C23.7591 7.19089 23.8128 7.22276 23.8695 7.24835C23.9272 7.26659 23.9867 7.2786 24.047 7.28418C24.0863 7.2952 24.1264 7.30327 24.167 7.30835H24.1878C24.2493 7.30314 24.31 7.29083 24.3687 7.27168C24.4147 7.26412 24.4601 7.25298 24.5045 7.23835C24.542 7.2168 24.5779 7.19257 24.612 7.16585C24.6686 7.13354 24.7212 7.09466 24.7687 7.05002C24.7737 7.04502 24.7803 7.04335 24.7845 7.03835C24.8071 7.00594 24.8275 6.97196 24.8453 6.93669C24.883 6.88717 24.9149 6.83349 24.9403 6.77668C24.959 6.71907 24.971 6.65952 24.9762 6.59918C24.9874 6.55847 24.9955 6.51696 25.0003 6.47502V1.66669C25.5348 1.66738 26.0689 1.69659 26.6003 1.75419ZM15.547 5.28252C17.7125 3.32796 20.4352 2.09977 23.3337 1.77002V5.11918C21.9774 4.74646 20.5331 5.26516 19.7239 6.41561C18.9147 7.56606 18.9147 9.10065 19.7239 10.2511C20.5331 11.4015 21.9774 11.9202 23.3337 11.5475V15.8334H19.0478C19.4206 14.4771 18.9018 13.0328 17.7514 12.2236C16.601 11.4144 15.0664 11.4144 13.9159 12.2236C12.7655 13.0328 12.2468 14.4771 12.6195 15.8334H10.8337C10.8371 11.8071 12.5504 7.97168 15.547 5.28252Z" fill="#E3572B"/>
<path d="M49.1667 15H43.3333C42.8731 15 42.5 15.3731 42.5 15.8333C42.5 16.2936 42.8731 16.6667 43.3333 16.6667H49.1667C49.6269 16.6667 50 16.2936 50 15.8333C50 15.3731 49.6269 15 49.1667 15Z" fill="#E3572B"/>
<path d="M40.8783 7.50002C41.0246 7.50033 41.1684 7.4618 41.295 7.38835L46.3458 4.47169C46.741 4.24002 46.8751 3.73281 46.646 3.33611C46.417 2.9394 45.9107 2.80194 45.5125 3.02835L40.4616 5.94502C40.135 6.13361 39.9758 6.51807 40.0734 6.88237C40.171 7.24668 40.5011 7.5 40.8783 7.50002Z" fill="#E3572B"/>
<path d="M40.1557 24.5834C39.9256 24.982 40.0622 25.4916 40.4607 25.7217L45.5116 28.6384C45.9098 28.8648 46.4161 28.7274 46.6451 28.3307C46.8742 27.9339 46.7401 27.4267 46.3449 27.1951L41.2941 24.2784C40.8955 24.0483 40.3859 24.1848 40.1557 24.5834Z" fill="#E3572B"/>
<path d="M0.833333 16.6667H6.66667C7.1269 16.6667 7.5 16.2936 7.5 15.8333C7.5 15.3731 7.1269 15 6.66667 15H0.833333C0.373096 15 0 15.3731 0 15.8333C0 16.2936 0.373096 16.6667 0.833333 16.6667Z" fill="#E3572B"/>
<path d="M3.65485 4.4717L8.70569 7.38837C8.96366 7.53961 9.28289 7.54102 9.5422 7.39208C9.80151 7.24314 9.96113 6.96667 9.96047 6.66764C9.95981 6.3686 9.79898 6.09284 9.53902 5.94504L4.48819 3.02837C4.23021 2.87713 3.91098 2.87572 3.65167 3.02466C3.39236 3.1736 3.23274 3.45007 3.2334 3.74911C3.23406 4.04814 3.39489 4.3239 3.65485 4.4717Z" fill="#E3572B"/>
<path d="M8.70569 24.2784L3.65485 27.195C3.39489 27.3428 3.23406 27.6186 3.2334 27.9176C3.23274 28.2167 3.39236 28.4931 3.65167 28.6421C3.91098 28.791 4.23021 28.7896 4.48819 28.6384L9.53902 25.7217C9.9342 25.49 10.0683 24.9828 9.83925 24.5861C9.6102 24.1894 9.1039 24.0519 8.70569 24.2784Z" fill="#E3572B"/>
</svg>
