<svg width="50" height="50" viewBox="0 0 50 50" fill="none" xmlns="http://www.w3.org/2000/svg">
<g clip-path="url(#clip0_7381_102)">
<mask id="mask0_7381_102" style="mask-type:luminance" maskUnits="userSpaceOnUse" x="0" y="0" width="50" height="50">
<path d="M0 0H50V50H0V0Z" fill="white"/>
</mask>
<g mask="url(#mask0_7381_102)">
<path fill-rule="evenodd" clip-rule="evenodd" d="M38.534 19.7992C38.9408 20.206 38.9408 20.8654 38.534 21.2723L29.6054 30.2009C29.1986 30.6077 28.5392 30.6077 28.1323 30.2009C27.7254 29.7942 27.7254 29.1346 28.1323 28.7277L37.0608 19.7992C37.4677 19.3924 38.1273 19.3924 38.534 19.7992Z" fill="#1F1F1F"/>
<path fill-rule="evenodd" clip-rule="evenodd" d="M30.0593 22.619C30.5524 22.619 30.952 22.2194 30.952 21.7263C30.952 21.2331 30.5524 20.8333 30.0593 20.8333C29.5661 20.8333 29.1663 21.2331 29.1663 21.7263C29.1663 22.2194 29.5661 22.619 30.0593 22.619ZM30.0593 24.7023C31.703 24.7023 33.0353 23.37 33.0353 21.7263C33.0353 20.0825 31.703 18.75 30.0593 18.75C28.4155 18.75 27.083 20.0825 27.083 21.7263C27.083 23.37 28.4155 24.7023 30.0593 24.7023Z" fill="#1F1F1F"/>
<path fill-rule="evenodd" clip-rule="evenodd" d="M36.6069 29.1667C37.1 29.1667 37.4998 28.7669 37.4998 28.2738C37.4998 27.7806 37.1 27.3811 36.6069 27.3811C36.114 27.3811 35.7142 27.7806 35.7142 28.2738C35.7142 28.7669 36.114 29.1667 36.6069 29.1667ZM36.6069 31.25C38.2506 31.25 39.5832 29.9175 39.5832 28.2738C39.5832 26.63 38.2506 25.2977 36.6069 25.2977C34.9634 25.2977 33.6309 26.63 33.6309 28.2738C33.6309 29.9175 34.9634 31.25 36.6069 31.25Z" fill="#1F1F1F"/>
<path fill-rule="evenodd" clip-rule="evenodd" d="M38.5338 21.2723C38.9407 20.8654 38.9407 20.2059 38.5338 19.7991C38.1272 19.3924 37.4676 19.3924 37.0607 19.7991L28.1322 28.7277C27.7253 29.1346 27.7253 29.7942 28.1322 30.2008C28.539 30.6077 29.1984 30.6077 29.6053 30.2008L38.5338 21.2723ZM33.0353 21.7263C33.0353 23.37 31.703 24.7023 30.0593 24.7023C28.4155 24.7023 27.083 23.37 27.083 21.7263C27.083 20.0825 28.4155 18.75 30.0593 18.75C31.703 18.75 33.0353 20.0825 33.0353 21.7263ZM39.583 28.2737C39.583 29.9175 38.2505 31.25 36.6068 31.25C34.9632 31.25 33.6307 29.9175 33.6307 28.2737C33.6307 26.63 34.9632 25.2977 36.6068 25.2977C38.2505 25.2977 39.583 26.63 39.583 28.2737ZM30.952 21.7263C30.952 22.2194 30.5524 22.619 30.0593 22.619C29.5661 22.619 29.1663 22.2194 29.1663 21.7263C29.1663 21.2331 29.5661 20.8333 30.0593 20.8333C30.5524 20.8333 30.952 21.2331 30.952 21.7263ZM36.6068 29.1667C37.0999 29.1667 37.4997 28.7669 37.4997 28.2737C37.4997 27.7806 37.0999 27.381 36.6068 27.381C36.1138 27.381 35.7141 27.7806 35.7141 28.2737C35.7141 28.7669 36.1138 29.1667 36.6068 29.1667Z" fill="#1F1F1F"/>
<path fill-rule="evenodd" clip-rule="evenodd" d="M16.3545 -0.0067749C13.478 -0.0067749 11.1462 2.32507 11.1462 5.20155V23.0144H7.30111C2.93701 23.0144 0.508061 28.0598 3.22988 31.4713L16.4499 48.04C18.535 50.6534 22.5072 50.6534 24.5924 48.04L31.4372 39.4613C32.0578 39.5419 32.6905 39.5833 33.333 39.5833C41.3872 39.5833 47.9163 33.0542 47.9163 25C47.9163 16.9459 41.3872 10.4167 33.333 10.4167C32.1491 10.4167 30.9982 10.5577 29.8961 10.824V5.20155C29.8961 2.32507 27.5643 -0.0067749 24.6878 -0.0067749H16.3545ZM16.3545 2.07656C14.6286 2.07656 13.2295 3.47568 13.2295 5.20155V24.0561C13.2295 24.6315 12.7631 25.0977 12.1878 25.0977H7.30111C4.68265 25.0977 3.22528 28.125 4.85838 30.1719L18.0784 46.7406C19.3295 48.3088 21.7128 48.3088 22.9638 46.7406L29.1584 38.9771C23.1386 37.1817 18.7497 31.6033 18.7497 25C18.7497 18.8995 22.4955 13.6738 27.8128 11.4977V5.20155C27.8128 3.47568 26.4136 2.07656 24.6878 2.07656H16.3545ZM33.333 37.5C40.2366 37.5 45.833 31.9036 45.833 25C45.833 18.0965 40.2366 12.5 33.333 12.5C32.1411 12.5 30.988 12.6668 29.8961 12.9784C29.1728 13.1848 28.4761 13.4548 27.8128 13.7818C23.6778 15.8205 20.833 20.078 20.833 25C20.833 30.9575 25.0007 35.9417 30.5797 37.1958C31.363 37.3719 32.1741 37.4744 33.0055 37.4958C33.1143 37.4986 33.2234 37.5 33.333 37.5Z" fill="#1F1F1F"/>
</g>
</g>
<defs>
<clipPath id="clip0_7381_102">
<rect width="50" height="50" fill="white"/>
</clipPath>
</defs>
</svg>
