<svg width="30" height="30" viewBox="0 0 30 30" fill="none" xmlns="http://www.w3.org/2000/svg">
<path d="M4.25957 15.7818C5.55048 15.7818 6.59593 14.7318 6.59593 13.4454C6.59593 12.95 6.43684 12.4909 6.1732 12.1091L10.105 8.16361C10.4777 8.41815 10.9323 8.56815 11.4187 8.56815C12.0278 8.56815 12.5777 8.32724 12.9959 7.94542L16.4823 10.5318C16.3323 10.8409 16.2414 11.1818 16.2414 11.5454C16.2414 12.8363 17.2914 13.8818 18.5777 13.8818C19.8687 13.8818 20.9141 12.8318 20.9141 11.5454C20.9141 11.0182 20.7323 10.5409 20.4414 10.15L25.105 5.01815L24.8641 6.75452C24.8323 6.99542 24.9959 7.21815 25.2368 7.24997C25.2596 7.25452 25.2778 7.25452 25.3005 7.25452C25.5141 7.25452 25.705 7.09542 25.7368 6.87724L26.1777 3.73179C26.1777 3.7227 26.1732 3.71361 26.1732 3.69997C26.1778 3.65452 26.1732 3.61361 26.1596 3.5727C26.155 3.55452 26.1505 3.53179 26.1459 3.51361C26.1323 3.4727 26.105 3.43633 26.0777 3.39997C26.0687 3.38633 26.0641 3.36815 26.0505 3.35906C26.0459 3.35452 26.0414 3.35452 26.0368 3.34997C26.0368 3.34997 26.0368 3.34542 26.0323 3.34542C26.0278 3.34542 26.0278 3.34088 26.0232 3.34088C25.9368 3.26815 25.8278 3.22724 25.7187 3.23179H25.7141C25.7005 3.23179 25.6868 3.23179 25.6778 3.23179L22.5323 3.6727C22.2914 3.70452 22.1232 3.92724 22.1596 4.16815C22.1914 4.40906 22.4141 4.57724 22.655 4.54088L24.6005 4.26815L19.7959 9.55906C19.4414 9.34088 19.0278 9.20906 18.5823 9.20906C17.9732 9.20906 17.4232 9.44997 17.0096 9.83179L13.5232 7.24542C13.6732 6.94088 13.7596 6.59997 13.7596 6.23633C13.7596 4.94542 12.7096 3.89997 11.4232 3.89997C10.1368 3.89997 9.08684 4.94997 9.08684 6.23633C9.08684 6.7227 9.23684 7.1727 9.49139 7.54997L5.55048 11.5C5.18229 11.2545 4.73684 11.1091 4.26411 11.1091C2.9732 11.1091 1.92775 12.1591 1.92775 13.4454C1.9232 14.7363 2.96866 15.7818 4.25957 15.7818ZM18.5823 10.0863C19.3868 10.0863 20.0414 10.7409 20.0414 11.5454C20.0414 12.35 19.3868 13.0045 18.5823 13.0045C17.7778 13.0045 17.1232 12.35 17.1232 11.5454C17.1232 10.7409 17.7778 10.0863 18.5823 10.0863ZM11.4187 4.7727C12.2232 4.7727 12.8777 5.42724 12.8777 6.23179C12.8777 7.03633 12.2232 7.69088 11.4187 7.69088C10.6141 7.69088 9.95957 7.03633 9.95957 6.23179C9.95957 5.42724 10.6141 4.7727 11.4187 4.7727ZM4.25957 11.9863C5.06411 11.9863 5.71866 12.6409 5.71866 13.4454C5.71866 14.25 5.06411 14.9045 4.25957 14.9045C3.45502 14.9045 2.80048 14.25 2.80048 13.4454C2.80048 12.6409 3.45502 11.9863 4.25957 11.9863Z" fill="#1F1F1F"/>
<path d="M29.0685 25.8909H28.2412V11.2091C28.2412 10.4818 27.6503 9.89087 26.923 9.89087H24.5685C23.8412 9.89087 23.2503 10.4818 23.2503 11.2091V25.8909H21.0821V17.8C21.0821 17.0727 20.4912 16.4818 19.7639 16.4818H17.4094C16.6821 16.4818 16.0912 17.0727 16.0912 17.8V25.8863H13.923V14.2863C13.923 13.5591 13.3321 12.9681 12.6048 12.9681H10.2503C9.52303 12.9681 8.93212 13.5591 8.93212 14.2863V25.8909H6.76394V21.7591C6.76394 21.0318 6.17303 20.4409 5.44576 20.4409H3.08212C2.35485 20.4409 1.76394 21.0318 1.76394 21.7591V25.8909H0.93212C0.691211 25.8909 0.491211 26.0863 0.491211 26.3318C0.491211 26.5772 0.686665 26.7727 0.93212 26.7727H29.0639C29.3048 26.7727 29.5048 26.5772 29.5048 26.3318C29.5048 26.0863 29.3094 25.8909 29.0685 25.8909ZM2.64121 25.8909V21.7591C2.64121 21.5181 2.83667 21.3181 3.08212 21.3181H5.43667C5.67757 21.3181 5.87757 21.5136 5.87757 21.7591V25.8909H2.64121ZM9.8003 25.8909V14.2863C9.8003 14.0454 9.99576 13.8454 10.2412 13.8454H12.5958C12.8367 13.8454 13.0367 14.0409 13.0367 14.2863V25.8909H9.8003ZM16.9639 25.8909V17.8C16.9639 17.5591 17.1594 17.3591 17.4048 17.3591H19.7594C20.0003 17.3591 20.2003 17.5545 20.2003 17.8V25.8863H16.9639V25.8909ZM24.123 25.8909V11.2091C24.123 10.9681 24.3185 10.7681 24.5639 10.7681H26.9185C27.1594 10.7681 27.3594 10.9636 27.3594 11.2091V25.8909H24.123Z" fill="#1F1F1F"/>
</svg>
