<svg width="50" height="50" viewBox="0 0 50 50" fill="none" xmlns="http://www.w3.org/2000/svg">
<path fill-rule="evenodd" clip-rule="evenodd" d="M24.9848 38.2033C22.7501 40.1304 19.9303 42.7486 17.0397 44.6048C14.8397 46.0174 12.5892 46.9829 10.5097 46.9829C5.08564 46.9829 0.686523 42.5838 0.686523 37.1598C0.686523 31.7342 5.08564 27.3367 10.5097 27.3367C12.8795 27.3367 15.4753 28.6055 17.9667 30.3369L17.6368 29.1058C17.5248 28.6876 17.7733 28.2572 18.1914 28.1452C18.6095 28.0331 19.04 28.2817 19.1519 28.6998L19.9568 31.7036C20.069 32.122 19.8206 32.552 19.4022 32.6642L16.3984 33.4691C15.9802 33.5811 15.5499 33.3326 15.4378 32.9145C15.3257 32.4964 15.5743 32.066 15.9924 31.9539C15.9924 31.9539 16.5548 31.8032 17.1167 31.6526C14.9037 30.0973 12.6206 28.904 10.5097 28.904C5.95103 28.904 2.25378 32.5999 2.25378 37.1598C2.25378 41.7184 5.95103 45.4156 10.5097 45.4156C12.3257 45.4156 14.2715 44.5196 16.1928 43.286C19.2542 41.3202 22.2288 38.4764 24.4936 36.5614L24.5061 36.5763C26.8129 34.6237 29.8451 31.7395 32.9596 29.7399C35.1595 28.3274 37.41 27.3622 39.4895 27.3622C44.9135 27.3622 49.3126 31.7597 49.3126 37.1854C49.3126 42.6093 44.9135 47.0085 39.4895 47.0085C37.41 47.0085 35.1595 46.0429 32.9595 44.6304C30.0559 42.7659 27.2241 40.1327 24.9848 38.2033ZM26.2031 37.1852C28.364 39.0599 31.05 41.5416 33.8063 43.3115C35.7276 44.5452 37.6734 45.4412 39.4895 45.4412C44.0481 45.4412 47.7453 41.7439 47.7453 37.1854C47.7453 32.6254 44.0481 28.9296 39.4895 28.9296C37.6734 28.9296 35.7275 29.8253 33.8063 31.0588C31.05 32.8285 28.364 35.31 26.2031 37.1852ZM16.0866 24.3507H6.03417C5.60103 24.3507 5.24986 23.9995 5.24986 23.5664V20.178C5.24986 19.8535 5.44966 19.5625 5.7525 19.4461L8.51535 18.3827C8.90799 16.9042 9.49378 15.4906 10.2628 14.1712L9.05897 11.4635C8.92711 11.1669 8.99152 10.8198 9.22103 10.5903L12.8487 6.96263C13.0782 6.73312 13.4253 6.66871 13.7219 6.80057C13.7219 6.80057 16.4296 8.0044 16.4296 8.00449C17.7489 7.23548 19.1622 6.64998 20.6367 6.26116L21.7047 3.49342C21.8214 3.19096 22.1122 2.99146 22.4364 2.99146H27.5679C27.8925 2.99146 28.1836 3.19146 28.3001 3.49449L29.3631 6.26126C30.8373 6.65018 32.2504 7.23557 33.5696 8.0044L36.2772 6.80057C36.5738 6.66871 36.9209 6.73312 37.1504 6.96263L40.7781 10.5903C41.0073 10.8195 41.0719 11.1662 40.9406 11.4625C40.9406 11.4625 39.7411 14.1706 39.741 14.1706C40.5103 15.4903 41.096 16.9044 41.485 18.3831L44.2466 19.4461C44.5495 19.5625 44.7493 19.8535 44.7493 20.178V23.5664C44.7493 23.9995 44.3981 24.3507 43.965 24.3507H33.9176C33.6972 24.3507 33.4869 24.2578 33.3384 24.0951C33.1898 23.9322 33.1165 23.7145 33.1365 23.495C33.1593 23.2467 33.1708 22.9953 33.1708 22.7412C33.1708 18.2289 29.5118 14.5751 24.9996 14.5751C20.4875 14.5751 16.8335 18.2291 16.8335 22.7412C16.8335 22.9953 16.8451 23.2467 16.8677 23.495C16.8877 23.7145 16.8145 23.9323 16.6658 24.0951C16.5173 24.2579 16.307 24.3507 16.0866 24.3507ZM15.265 22.782C15.2649 22.7684 15.2649 22.7548 15.2649 22.7412C15.2649 17.3623 19.6207 13.0065 24.9996 13.0065C30.3783 13.0065 34.7395 17.3624 34.7395 22.7412C34.7395 22.7548 34.7395 22.7684 34.7394 22.782H43.1806V20.7166L40.5412 19.7008C40.2997 19.6077 40.1195 19.4016 40.0598 19.1496C39.6812 17.5518 39.0519 16.0325 38.1915 14.6363C38.0559 14.4163 38.0375 14.1435 38.1421 13.9072L39.2886 11.3191L36.4222 8.45273L33.8346 9.60332C33.598 9.70851 33.3249 9.69018 33.1045 9.5544C31.7081 8.69391 30.1888 8.06459 28.5957 7.68597C28.344 7.62616 28.1379 7.44587 28.045 7.2042L27.0291 4.56008H22.9745L21.9537 7.20528C21.8606 7.44646 21.6548 7.62626 21.4034 7.68597C19.8103 8.06459 18.291 8.69391 16.8947 9.5544C16.6743 9.69018 16.4011 9.70851 16.1646 9.60332L13.5769 8.45273L10.7111 11.3185L11.8617 13.9062C11.9669 14.1427 11.9486 14.4159 11.8128 14.6363C10.952 16.0332 10.3225 17.5532 9.93878 19.1518C9.87858 19.4027 9.69878 19.608 9.4579 19.7008L6.81848 20.7166V22.782H15.265ZM28.7125 22.1414L24.9996 17.4296L21.2866 22.1414H22.5391C22.9723 22.1414 23.3234 22.4924 23.3234 22.9257V30.1734C23.3234 30.6063 22.972 30.9577 22.5391 30.9577C22.1062 30.9577 21.7548 30.6063 21.7548 30.1734V23.71H20.7937C19.677 23.71 19.0637 22.4283 19.7467 21.5611L19.7469 21.5609L23.9562 16.2192C24.4898 15.5367 25.5094 15.5367 26.0429 16.2192L30.2524 21.5611C30.9354 22.4283 30.3221 23.71 29.2054 23.71H28.2444V30.1734C28.2444 30.6063 27.8929 30.9577 27.4601 30.9577C27.0271 30.9577 26.6757 30.6063 26.6757 30.1734V22.9257C26.6757 22.4924 27.0268 22.1414 27.4601 22.1414H28.7125Z" fill="#E3572B"/>
</svg>
