<svg width="50" height="50" viewBox="0 0 50 50" fill="none" xmlns="http://www.w3.org/2000/svg">
<g clip-path="url(#clip0_7383_151)">
<path d="M41.3764 30.0732L32.5723 35.2013C32.1309 35.4583 31.6821 35.6398 31.2136 35.7481C31.3871 35.4697 31.5232 35.1549 31.6165 34.8062C32.0665 33.1265 31.0682 31.3727 29.3436 30.8136C29.3101 30.8027 29.276 30.7941 29.2413 30.7879C26.711 30.3315 24.2135 29.4286 22.2068 28.7031C21.5096 28.4511 20.8512 28.213 20.2913 28.0315C18.0375 27.3003 15.9997 28.2056 14.3037 29.1874L7.75354 32.9798L7.13596 31.8886C6.8634 31.4068 6.41818 31.0599 5.88244 30.9113C5.34689 30.7628 4.78645 30.8312 4.30471 31.1038L1.83449 32.502C1.35266 32.7746 1.00559 33.2197 0.857051 33.7555C0.708515 34.2912 0.776972 34.8516 1.04963 35.3332L8.31203 48.1654C8.58459 48.6471 9.02981 48.9941 9.56555 49.1427C9.7508 49.194 9.93898 49.2194 10.1259 49.2194C10.4794 49.2194 10.8281 49.1285 11.1433 48.9502L13.6136 47.5521C14.0953 47.2795 14.4423 46.8344 14.5908 46.2986C14.7394 45.7629 14.6709 45.2025 14.3983 44.7209L13.6495 43.3979L15.1427 42.5357L26.4191 45.5572C27.0559 45.728 27.6811 45.8132 28.2928 45.8132C29.5123 45.8132 30.6781 45.4744 31.7753 44.7989L47.7529 34.9606C49.2093 34.064 49.6714 31.8039 48.7222 30.2191C48.2613 29.4498 46.37 27.1651 41.3764 30.0732ZM13.0852 45.8813C13.0481 46.0147 12.9625 46.1253 12.844 46.1923L10.3737 47.5903C10.131 47.7279 9.80949 47.639 9.6717 47.3958L2.40939 34.5637C2.3423 34.4452 2.3259 34.3064 2.36281 34.1729C2.39982 34.0394 2.48547 33.9288 2.60402 33.8618L5.07424 32.4638C5.15139 32.4201 5.23713 32.3979 5.32443 32.3979C5.37121 32.3979 5.41848 32.4043 5.46506 32.4173C5.59855 32.4543 5.7091 32.5399 5.77619 32.6584L13.0386 45.4906C13.1056 45.609 13.1222 45.7478 13.0852 45.8813ZM46.9336 33.6302L30.9561 43.4685C29.6891 44.2485 28.2987 44.4436 26.8236 44.048L15.2346 40.9428C15.0347 40.8894 14.8213 40.9173 14.6418 41.0208L12.88 42.038L8.52316 34.3397L15.0866 30.5396C16.5548 29.6895 18.1434 28.9773 19.8092 29.5178C20.3444 29.6913 20.9612 29.9144 21.6754 30.1726C23.7229 30.9128 26.2674 31.8327 28.9075 32.3153C29.8276 32.6368 30.342 33.5256 30.1072 34.4019C29.7983 35.5548 28.8373 35.6979 28.0737 35.6103C26.7768 35.3436 25.5444 34.9919 24.2404 34.6195C23.6222 34.4429 22.9827 34.2604 22.3256 34.0843C21.9092 33.9729 21.4805 34.22 21.3688 34.6367C21.257 35.0534 21.5045 35.4818 21.9212 35.5936C22.566 35.7663 23.1991 35.9472 23.8113 36.122C25.1552 36.5058 26.4245 36.8683 27.7914 37.1477C27.7966 37.1487 27.8018 37.1491 27.8071 37.15C27.8123 37.1509 27.8172 37.1524 27.8225 37.1533L28.9173 37.3313C30.5544 37.5934 32.0075 37.3383 33.3586 36.5514L42.1628 31.4233C44.697 29.9473 46.6482 29.7972 47.3817 31.0219C47.8871 31.866 47.6611 33.1823 46.9336 33.6302ZM5.79094 34.9421C5.86144 35.424 5.52785 35.8719 5.04582 35.9424C4.56389 36.0128 4.11603 35.6792 4.04553 35.1973C3.97512 34.7153 4.30861 34.2675 4.79064 34.197C5.27268 34.1265 5.72053 34.4601 5.79094 34.9421ZM49.2186 6.05205V4.56484C49.2186 3.01709 47.9593 1.75781 46.4116 1.75781H33.6793C32.1316 1.75781 30.8724 3.01709 30.8724 4.56484V6.05205C30.8724 6.84766 31.2057 7.5665 31.7393 8.07783C31.2057 8.58906 30.8724 9.30791 30.8724 10.1035V11.5907C30.8724 11.7021 30.8794 11.8132 30.8927 11.9235C26.8047 12.8473 23.7425 16.5083 23.7425 20.8715C23.7425 25.9296 27.8576 30.0446 32.9157 30.0446C36.2972 30.0446 39.2568 28.2053 40.8475 25.4749H46.4116C47.9594 25.4749 49.2186 24.2157 49.2186 22.668V21.1807C49.2186 20.3851 48.8853 19.6662 48.3517 19.155C48.8853 18.6438 49.2186 17.9249 49.2186 17.1293V15.6421C49.2186 14.8465 48.8853 14.1277 48.3517 13.6164C48.8853 13.1052 49.2186 12.3863 49.2186 11.5907V10.1035C49.2186 9.30791 48.8853 8.58916 48.3517 8.07783C48.8853 7.5665 49.2186 6.84766 49.2186 6.05205ZM32.9157 28.482C28.7192 28.482 25.305 25.068 25.305 20.8714C25.305 16.6748 28.7192 13.2607 32.9157 13.2607C37.1123 13.2607 40.5264 16.6748 40.5264 20.8714C40.5264 25.068 37.1122 28.482 32.9157 28.482ZM47.6561 21.1807V22.6679C47.6561 23.354 47.0978 23.9123 46.4116 23.9123H41.57C41.9056 22.9602 42.0888 21.9369 42.0888 20.8714C42.0888 20.5558 42.0728 20.2437 42.0414 19.9361H46.4115C47.0978 19.9361 47.6561 20.4944 47.6561 21.1807ZM47.6561 15.642V17.1292C47.6561 17.8153 47.0978 18.3736 46.4116 18.3736H41.7431C41.3117 16.8512 40.4962 15.4886 39.4084 14.3976H46.4116C47.0978 14.3977 47.6561 14.9559 47.6561 15.642ZM47.6561 10.1034V11.5906C47.6561 12.2769 47.0978 12.8351 46.4116 12.8351H37.3348C36.0233 12.1109 34.5169 11.6981 32.9157 11.6981C32.757 11.6981 32.5989 11.7022 32.4421 11.7103C32.4383 11.6707 32.4349 11.631 32.4349 11.5906V10.1034C32.4349 9.41728 32.9932 8.85898 33.6793 8.85898H46.4116C47.0978 8.85898 47.6561 9.41728 47.6561 10.1034ZM33.6793 7.29648C32.9932 7.29648 32.4349 6.73818 32.4349 6.05195V4.56484C32.4349 3.87861 32.9932 3.32031 33.6793 3.32031H46.4116C47.0978 3.32031 47.6561 3.87861 47.6561 4.56484V6.05205C47.6561 6.73828 47.0978 7.29658 46.4116 7.29658L33.6793 7.29648ZM36.3687 22.7416C36.4557 23.4583 36.2624 24.1136 35.8099 24.6367C35.3323 25.1888 34.5697 25.5723 33.6969 25.7152V26.1817C33.6969 26.6132 33.3471 26.963 32.9156 26.963C32.4842 26.963 32.1344 26.6132 32.1344 26.1817V25.7027C30.8007 25.4484 29.7751 24.56 29.4655 23.3177C29.3612 22.899 29.6159 22.4751 30.0346 22.3707C30.4535 22.2665 30.8772 22.5212 30.9816 22.9398C31.2235 23.9101 32.2238 24.2306 33.0065 24.2138C33.6908 24.1975 34.3273 23.9622 34.628 23.6146C34.791 23.426 34.8512 23.2085 34.8174 22.9299C34.7605 22.4615 34.4793 21.8883 32.7966 21.6121C30.344 21.2093 29.7713 19.9342 29.7229 18.9354C29.6557 17.5535 30.6137 16.3976 32.1065 16.0589C32.1157 16.0568 32.1249 16.0548 32.1342 16.0527V15.5609C32.1342 15.1295 32.484 14.7797 32.9155 14.7797C33.3469 14.7797 33.6967 15.1295 33.6967 15.5609V16.0458C34.6783 16.2485 35.6194 16.8596 36.1064 18.0195C36.2735 18.4174 36.0863 18.8753 35.6886 19.0423C35.2909 19.2093 34.8329 19.0224 34.6657 18.6244C34.2568 17.6506 33.2595 17.3997 32.4521 17.5826C31.8637 17.7161 31.2477 18.1217 31.2834 18.8595C31.2957 19.1133 31.3285 19.7875 33.0496 20.0701C35.0772 20.403 36.1938 21.3018 36.3687 22.7416ZM16.4489 8.20322H17.9536V17.8654C17.9536 18.2969 18.3034 18.6467 18.7349 18.6467H21.8983C22.3297 18.6467 22.6795 18.2969 22.6795 17.8654V8.20322H24.1842C24.4716 8.20322 24.7359 8.04531 24.8722 7.79219C25.0084 7.53906 24.9946 7.23154 24.8362 6.9916L20.9687 1.13213C20.824 0.913086 20.579 0.78125 20.3166 0.78125C20.0542 0.78125 19.8092 0.913086 19.6646 1.13213L15.797 6.9916C15.6387 7.23154 15.6248 7.53906 15.7611 7.79219C15.8973 8.04541 16.1615 8.20322 16.4489 8.20322ZM20.3166 2.98066L22.7324 6.64072H21.8983C21.4668 6.64072 21.117 6.99053 21.117 7.42197V17.0842H19.5161V7.42197C19.5161 6.99053 19.1663 6.64072 18.7349 6.64072H17.9007L20.3166 2.98066Z" fill="#E3572B"/>
</g>
<defs>
<clipPath id="clip0_7383_151">
<rect width="50" height="50" fill="white"/>
</clipPath>
</defs>
</svg>
