<svg width="44" height="40" viewBox="0 0 44 40" fill="none" xmlns="http://www.w3.org/2000/svg">
<path fill-rule="evenodd" clip-rule="evenodd" d="M4.1783 21.1653C4.1783 21.4394 4.13614 21.6695 4.30998 21.8421C4.35124 21.8835 4.40031 21.9163 4.45438 21.9387C4.50844 21.9612 4.56643 21.9728 4.62502 21.9729H8.45936C8.57761 21.9722 8.6908 21.9252 8.77442 21.8422C8.85804 21.7591 8.90534 21.6467 8.90609 21.5293V21.1653H4.1783ZM3.71434 19.9459C3.85134 19.9732 3.83493 20.0143 4.02957 20.0143H9.02375C9.19554 20.0169 9.36235 19.9569 9.49265 19.8457L9.49375 19.8469C9.54211 19.8064 9.58131 19.7562 9.60877 19.6996C9.63623 19.643 9.65134 19.5813 9.65311 19.5185C9.65311 18.0344 9.48816 17.0964 10.6723 15.7834C11.3868 15.0103 11.7861 14.0009 11.7924 12.9516C11.7924 6.92616 1.29157 6.87475 1.29157 12.9179C1.29794 13.9671 1.69727 14.9765 2.41182 15.7494C3.55535 17.0175 3.40003 18.0641 3.40003 19.5185C3.40179 19.5813 3.4169 19.643 3.44436 19.6996C3.47183 19.7562 3.51102 19.8064 3.55938 19.8469L3.56048 19.8457C3.60659 19.8863 3.65835 19.92 3.71416 19.9458L3.71434 19.9459ZM7.89231 23.1232H5.19207C5.74628 24.0423 7.33791 24.0423 7.89231 23.1232ZM10.0649 20.8556C10.0649 21.5545 10.1412 22.1114 9.59373 22.6554C9.46938 22.7789 9.32561 22.8814 9.16808 22.959C8.83819 24.8559 6.23489 25.6312 4.69155 24.2962C4.28535 23.9528 4.01142 23.4803 3.91631 22.959C3.64751 22.8272 3.42113 22.6235 3.26266 22.3709C3.1042 22.1182 3.01997 21.8266 3.01946 21.5289V20.8757C2.93882 20.8247 2.86246 20.7674 2.79111 20.7042V20.702C2.6201 20.5548 2.48262 20.3732 2.38782 20.1691C2.29302 19.965 2.24307 19.7432 2.24129 19.5185C2.24944 18.3849 2.38919 17.4421 1.55182 16.5137C0.646092 15.5313 0.140354 14.2497 0.132828 12.9179C0.132828 5.35317 12.9514 5.39848 12.9514 12.9516C12.9439 14.2835 12.4381 15.5651 11.5324 16.5475C10.6365 17.5409 10.8119 18.402 10.8119 19.5185C10.8102 19.7432 10.7602 19.965 10.6654 20.1691C10.5706 20.3732 10.4331 20.5548 10.2621 20.702V20.7042C10.2 20.7592 10.134 20.8098 10.0646 20.8556H10.0649ZM35.498 38.8493H39.8771V11.3205H35.498V38.8493ZM25.0399 38.8493H29.4191V21.7744H25.0395V38.8493H25.0399ZM14.5819 38.8493H18.961V26.987H14.5814V38.8493H14.5819ZM4.12377 38.8493H8.50289V29.0922H4.12331V38.8493H4.12377ZM0.586703 40C0.510006 40.0009 0.43388 39.9867 0.362742 39.9583C0.291604 39.9298 0.226869 39.8875 0.172291 39.834C0.117714 39.7805 0.0743808 39.7168 0.0448051 39.6465C0.0152294 39.5762 0 39.5008 0 39.4246C0 39.3484 0.0152294 39.273 0.0448051 39.2028C0.0743808 39.1325 0.117714 39.0687 0.172291 39.0152C0.226869 38.9617 0.291604 38.9195 0.362742 38.891C0.43388 38.8625 0.510006 38.8483 0.586703 38.8493H2.96448V28.5168C2.96448 28.3642 3.02553 28.2178 3.13419 28.1099C3.24285 28.002 3.39023 27.9414 3.5439 27.9414H9.08185C9.23552 27.9414 9.38289 28.002 9.49156 28.1099C9.60022 28.2178 9.66126 28.3642 9.66126 28.5168V38.8493H13.4228V26.4116C13.4228 26.259 13.4839 26.1127 13.5925 26.0048C13.7012 25.8969 13.8486 25.8362 14.0023 25.8362H19.5402C19.6939 25.8362 19.8413 25.8969 19.9499 26.0048C20.0586 26.1127 20.1196 26.259 20.1196 26.4116V38.8493H23.8809V21.1991C23.8809 21.0465 23.942 20.9001 24.0506 20.7922C24.1593 20.6843 24.3067 20.6237 24.4603 20.6237H29.998C30.1517 20.6237 30.2991 20.6843 30.4077 20.7922C30.5164 20.9001 30.5774 21.0465 30.5774 21.1991V38.8493H34.3387V10.7455C34.3387 10.5929 34.3998 10.4465 34.5084 10.3386C34.6171 10.2307 34.7645 10.1701 34.9182 10.1701H40.4561C40.6098 10.1701 40.7571 10.2307 40.8658 10.3386C40.9745 10.4465 41.0355 10.5929 41.0355 10.7455V38.8493H43.4133C43.49 38.8483 43.5661 38.8625 43.6373 38.891C43.7084 38.9195 43.7731 38.9617 43.8277 39.0152C43.8823 39.0687 43.9256 39.1325 43.9552 39.2028C43.9848 39.273 44 39.3484 44 39.4246C44 39.5008 43.9848 39.5762 43.9552 39.6465C43.9256 39.7168 43.8823 39.7805 43.8277 39.834C43.7731 39.8875 43.7084 39.9298 43.6373 39.9583C43.5661 39.9867 43.49 40.0009 43.4133 40H0.586703ZM39.0389 2.32165L17.1616 19.4995C17.0409 19.5858 16.8914 19.6226 16.7441 19.6021C16.5968 19.5817 16.4631 19.5055 16.371 19.3896C16.2788 19.2737 16.2353 19.1269 16.2494 18.9799C16.2635 18.8329 16.3343 18.6969 16.4468 18.6004L38.2989 1.44215L35.5504 1.14513C35.3979 1.1291 35.258 1.05356 35.1616 0.935142C35.0652 0.816725 35.0201 0.665126 35.0363 0.513695C35.0524 0.362265 35.1285 0.223408 35.2477 0.12767C35.367 0.0319328 35.5196 -0.0128423 35.6721 0.00319491L39.8233 0.452089C39.9757 0.468179 40.1155 0.543753 40.2119 0.662187C40.3082 0.78062 40.3533 0.932213 40.3371 1.08362L39.8851 5.20584C39.868 5.35648 39.7915 5.49426 39.6724 5.58912C39.5533 5.68399 39.4013 5.72824 39.2495 5.71221C39.0977 5.69618 38.9585 5.62118 38.8621 5.50357C38.7658 5.38597 38.7202 5.2353 38.7354 5.08445L39.0389 2.32165Z" fill="#1F1F1F"/>
</svg>
