<svg width="60" height="60" viewBox="0 0 60 60" fill="none" xmlns="http://www.w3.org/2000/svg">
<path d="M57.8626 13.447L50.0891 6.52057C49.4802 5.96733 48.5211 5.56763 47.6008 5.56763H12.4126C12.0685 5.56763 11.7332 5.62939 11.4067 5.71763C11.3511 5.71763 11.2823 5.75292 11.2655 5.75292C10.7238 5.95233 10.3876 6.10586 9.91552 6.51174C9.6367 6.76057 2.30876 13.2882 2.04493 13.5529C0.668462 14.8376 0.527286 16.9791 1.61258 18.4588C28.5614 55.0376 27.0914 53.1997 27.7479 53.6647C29.0908 54.7032 30.9685 54.667 32.2479 53.6823C32.9538 53.1529 31.0779 55.5459 58.3832 18.4588C59.5991 16.8362 59.1905 14.6241 57.8626 13.447ZM48.6332 7.62351C48.8838 7.78233 56.7455 14.8129 56.8655 14.9559H41.6449L48.6332 7.62351ZM46.4714 7.33233L39.5185 14.6294L32.142 7.33233H46.4714ZM37.3391 14.9559H22.6567L29.9979 7.6941L37.3391 14.9559ZM27.8538 7.33233L20.4773 14.6294L13.5243 7.33233H27.8538ZM3.31552 14.7706C3.48317 14.6206 11.1729 7.73998 11.3714 7.63233L18.3508 14.9559H3.13905C3.19199 14.8941 3.24493 14.8235 3.31552 14.7706ZM3.03317 17.4088C2.88317 17.2059 2.77729 16.9765 2.71552 16.7382H19.8067L26.8743 49.7735L3.03317 17.4088ZM30.7567 52.4559C30.2943 52.7329 29.6802 52.7206 29.2567 52.4559L21.6067 16.7382H38.3891L30.7567 52.4559ZM56.9714 17.4088H56.9626L33.1302 49.7735L40.1979 16.7382H57.2891C57.2273 16.9765 57.1214 17.2059 56.9714 17.4088Z" fill="#1F1F1F"/>
</svg>
