<svg width="40" height="40" viewBox="0 0 40 40" fill="none" xmlns="http://www.w3.org/2000/svg">
<path d="M30.7689 21.1104C30.5137 23.582 29.4178 25.8913 27.6642 27.6526C25.9105 29.414 23.6052 30.5209 21.1333 30.7884C21.0836 30.7878 21.0342 30.7971 20.9881 30.8159C20.942 30.8346 20.9001 30.8624 20.8649 30.8976C20.8297 30.9328 20.8019 30.9746 20.7831 31.0207C20.7643 31.0668 20.755 31.1161 20.7556 31.1659V39.2449C20.7556 39.4452 20.676 39.6373 20.5343 39.7789C20.3926 39.9205 20.2004 40 20 40C19.7996 40 19.6074 39.9205 19.4657 39.7789C19.324 39.6373 19.2444 39.4452 19.2444 39.2449V36.3136C19.2372 36.2158 19.1951 36.1239 19.1258 36.0546C19.0564 35.9853 18.9645 35.9432 18.8667 35.936C15.5063 35.6643 12.3188 34.334 9.76309 32.1368C7.20736 29.9395 5.41516 26.9886 4.64444 23.7086C4.61576 23.6115 4.60693 23.5095 4.6185 23.4088C4.63006 23.3082 4.66178 23.2109 4.71177 23.1227C4.76175 23.0346 4.82898 22.9574 4.90944 22.8958C4.9899 22.8341 5.08196 22.7893 5.18012 22.7639C5.27829 22.7386 5.38055 22.7333 5.48082 22.7482C5.58109 22.7632 5.67732 22.7982 5.76378 22.8511C5.85023 22.904 5.92515 22.9738 5.98406 23.0563C6.04296 23.1387 6.08466 23.2322 6.10667 23.3311C6.79185 26.2752 8.38952 28.9281 10.672 30.9115C12.9544 32.8949 15.8051 34.1078 18.8178 34.3771C18.9156 34.4259 19.0089 34.3771 19.1022 34.2838C19.1516 34.256 19.1915 34.214 19.2168 34.1634C19.2421 34.1128 19.2518 34.0557 19.2444 33.9996V31.1659C19.245 31.1161 19.2357 31.0668 19.2169 31.0207C19.1981 30.9746 19.1703 30.9328 19.1351 30.8976C19.0999 30.8624 19.058 30.8346 19.0119 30.8159C18.9658 30.7971 18.9164 30.7878 18.8667 30.7884C16.4065 30.5145 14.1109 29.419 12.3511 27.6793C10.5917 25.9123 9.49336 23.5947 9.24 21.1148C9.22559 21.0241 9.17999 20.9412 9.11104 20.8804C9.0421 20.8196 8.95412 20.7847 8.86222 20.7817H0.777778C0.571498 20.7817 0.373668 20.6998 0.227806 20.554C0.0819443 20.4083 0 20.2106 0 20.0044C0 19.7983 0.0819443 19.6006 0.227806 19.4548C0.373668 19.3091 0.571498 19.2272 0.777778 19.2272H3.84889C3.94053 19.2234 4.02807 19.1882 4.09685 19.1275C4.16563 19.0669 4.21146 18.9845 4.22667 18.8941C4.42834 15.5409 5.67505 12.3349 7.79198 9.72555C9.90892 7.11619 12.7899 5.23431 16.0311 4.34377C16.2274 4.30654 16.4305 4.34577 16.5987 4.45342C16.767 4.56107 16.8877 4.72897 16.936 4.92269C16.9843 5.11642 16.9566 5.32127 16.8586 5.49525C16.7606 5.66922 16.5997 5.79913 16.4089 5.85832C13.5092 6.63972 10.926 8.30654 9.02009 10.626C7.11417 12.9455 5.98064 15.8019 5.77778 18.7964C5.76525 18.8515 5.76574 18.9088 5.77923 18.9638C5.79272 19.0187 5.81883 19.0698 5.85549 19.1129C5.89215 19.156 5.93836 19.1899 5.99044 19.2121C6.04252 19.2343 6.09906 19.244 6.15556 19.2405H8.84444C8.93634 19.2375 9.02432 19.2026 9.09327 19.1418C9.16221 19.081 9.20781 18.9981 9.22222 18.9074C9.4739 16.4313 10.5694 14.1168 12.3252 12.3516C14.081 10.5865 16.3904 9.47793 18.8667 9.21164C18.9164 9.21223 18.9658 9.20287 19.0119 9.18411C19.058 9.16535 19.0999 9.13757 19.1351 9.10239C19.1703 9.06721 19.1981 9.02536 19.2169 8.97929C19.2357 8.93321 19.245 8.88385 19.2444 8.83411V0.755052C19.2444 0.5548 19.324 0.362749 19.4657 0.22115C19.6074 0.07955 19.7996 0 20 0C20.2004 0 20.3926 0.07955 20.5343 0.22115C20.676 0.362749 20.7556 0.5548 20.7556 0.755052V9.91783C20.7606 10.0247 20.7433 10.1315 20.7047 10.2314C20.666 10.3312 20.607 10.4219 20.5312 10.4976C20.4555 10.5732 20.3648 10.6323 20.2649 10.6709C20.165 10.7095 20.0581 10.7268 19.9511 10.7217C11.7333 10.7217 7.62667 20.7773 13.4356 26.5867C19.2444 32.3962 29.16 28.239 29.3022 20C29.301 19.9005 29.3198 19.8018 29.3573 19.7097C29.3949 19.6175 29.4505 19.5338 29.5209 19.4634C29.5913 19.3931 29.675 19.3375 29.7672 19.3C29.8594 19.2625 29.9582 19.2438 30.0578 19.2449H39.2222C39.4285 19.2449 39.6263 19.3268 39.7722 19.4726C39.9181 19.6184 40 19.8161 40 20.0222C40 20.2283 39.9181 20.426 39.7722 20.5718C39.6263 20.7176 39.4285 20.7995 39.2222 20.7995H36.2C36.1062 20.7957 36.0146 20.8282 35.9442 20.8903C35.8739 20.9523 35.8302 21.0391 35.8222 21.1326C35.577 24.5066 34.2712 27.717 32.0914 30.3053C29.9117 32.8936 26.9693 34.7275 23.6844 35.5452C22.6933 35.7806 22.3511 34.2705 23.3511 34.0351C26.2846 33.3062 28.9154 31.676 30.8729 29.374C32.8303 27.0721 34.0158 24.2144 34.2622 21.2036C34.2748 21.1485 34.2743 21.0912 34.2608 21.0362C34.2473 20.9813 34.2212 20.9302 34.1845 20.8871C34.1478 20.844 34.1016 20.8101 34.0496 20.7879C33.9975 20.7657 33.9409 20.756 33.8844 20.7595H31.1467C31.0548 20.7625 30.9668 20.7974 30.8978 20.8582C30.8289 20.919 30.7833 21.0019 30.7689 21.0926V21.1104ZM36.8889 8.54986L31.4267 13.9773C31.2932 14.1221 31.1079 14.2083 30.9111 14.2172H27.2711C27.1717 14.2259 27.0758 14.2578 26.9911 14.3105L20.52 20.8261C20.3745 20.962 20.1819 21.0361 19.9828 21.0329C19.7837 21.0298 19.5936 20.9495 19.4525 20.8091C19.3114 20.6687 19.2303 20.479 19.2263 20.2801C19.2224 20.0811 19.2958 19.8884 19.4311 19.7424L25.9022 13.2223C25.9458 13.2005 25.9822 13.1668 26.0074 13.1251C26.0326 13.0835 26.0454 13.0356 26.0444 12.9869V9.34044C26.0435 9.23539 26.0639 9.13125 26.1044 9.0343C26.1449 8.93735 26.2046 8.8496 26.28 8.77637L31.7111 3.35332C31.816 3.24002 31.9526 3.1609 32.1031 3.12628C32.2536 3.09166 32.411 3.10313 32.5549 3.15921C32.6988 3.21529 32.8225 3.31337 32.9098 3.44068C32.9971 3.568 33.044 3.71863 33.0444 3.87297V6.84877C33.0507 6.94683 33.0925 7.03925 33.1621 7.10874C33.2316 7.17823 33.3241 7.22002 33.4222 7.22629H36.3511C36.5073 7.2222 36.6612 7.26523 36.7926 7.34978C36.924 7.43432 37.0268 7.55646 37.0877 7.70028C37.1487 7.8441 37.1648 8.00292 37.1341 8.15604C37.1034 8.30917 37.0272 8.4495 36.9156 8.55874L36.8889 8.54986ZM30.6667 12.5472L33.8311 9.38486C33.8861 9.33409 33.9249 9.26832 33.9429 9.19568C33.9608 9.12305 33.9569 9.04677 33.9319 8.97629C33.9068 8.90581 33.8615 8.84424 33.8017 8.79923C33.742 8.75422 33.6703 8.72774 33.5956 8.72307H32.2622C32.0558 8.7279 31.8558 8.65143 31.7053 8.51017C31.5548 8.36892 31.4659 8.17419 31.4578 7.96802V6.67555C31.4574 6.59906 31.4346 6.52436 31.3921 6.4607C31.3497 6.39705 31.2895 6.34724 31.219 6.31745C31.1485 6.28766 31.0708 6.2792 30.9955 6.29311C30.9202 6.30703 30.8507 6.34271 30.7956 6.39574L27.6844 9.55807C27.6014 9.63038 27.5503 9.73254 27.5422 9.84233V12.2985C27.5416 12.3482 27.551 12.3976 27.5698 12.4436C27.5885 12.4897 27.6163 12.5316 27.6515 12.5667C27.6867 12.6019 27.7286 12.6297 27.7747 12.6485C27.8208 12.6672 27.8702 12.6766 27.92 12.676H30.4222C30.52 12.676 30.6133 12.676 30.6578 12.5783L30.6667 12.5472ZM26.4178 20.0089C26.4195 21.2788 26.0443 22.5207 25.3395 23.5774C24.6346 24.6341 23.632 25.4581 22.4584 25.945C21.2848 26.432 19.993 26.5601 18.7465 26.3131C17.5 26.0662 16.3548 25.4552 15.4559 24.5575C14.5571 23.6599 13.9449 22.5159 13.6969 21.2704C13.4488 20.0249 13.5761 18.7339 14.0626 17.5607C14.5491 16.3875 15.373 15.385 16.4299 14.6799C17.4868 13.9748 18.7292 13.5989 20 13.5998C20.191 13.6144 20.3693 13.7006 20.4995 13.841C20.6296 13.9814 20.7019 14.1657 20.7019 14.3571C20.7019 14.5485 20.6296 14.7328 20.4995 14.8732C20.3693 15.0136 20.191 15.0997 20 15.1144C18.7034 15.1144 17.4599 15.6291 16.543 16.5453C15.6262 17.4616 15.1111 18.7043 15.1111 20C15.1111 21.2957 15.6262 22.5384 16.543 23.4547C17.4599 24.3709 18.7034 24.8856 20 24.8856C22.8356 24.8856 24.7244 22.7626 24.8622 20C24.8578 19.8928 24.8755 19.7859 24.9142 19.6859C24.9528 19.5858 25.0117 19.4948 25.0871 19.4185C25.1625 19.3422 25.2528 19.2822 25.3524 19.2422C25.452 19.2023 25.5588 19.1833 25.6661 19.1863C25.7733 19.1894 25.8788 19.2144 25.976 19.26C26.0732 19.3055 26.1599 19.3706 26.2308 19.4511C26.3017 19.5316 26.3553 19.6258 26.3883 19.7279C26.4212 19.8299 26.4328 19.9377 26.4222 20.0444L26.4178 20.0089Z" fill="#1F1F1F"/>
</svg>
