<svg width="50" height="50" viewBox="0 0 50 50" fill="none" xmlns="http://www.w3.org/2000/svg">
<g clip-path="url(#clip0_7383_22)">
<path d="M25 50C18.3223 50 12.0441 47.3996 7.32227 42.6777C2.60039 37.9559 0 31.6777 0 25C0 18.3223 2.60049 12.0442 7.32227 7.32227C12.044 2.60029 18.3223 0 25 0C31.6777 0 37.9559 2.60039 42.6777 7.32227C47.3996 12.0441 50 18.3223 50 25C50 31.6777 47.3995 37.9558 42.6777 42.6777C37.956 47.3997 31.6777 50 25 50ZM25 3.125C12.9381 3.125 3.125 12.9381 3.125 25C3.125 37.0619 12.9381 46.875 25 46.875C37.0619 46.875 46.875 37.0619 46.875 25C46.875 12.9381 37.0619 3.125 25 3.125Z" fill="#1F1F1F"/>
<path d="M25 23.4375C22.8461 23.4375 21.0938 21.6852 21.0938 19.5312C21.0938 17.3773 22.8461 15.625 25 15.625C27.1539 15.625 28.9062 17.3773 28.9062 19.5312C28.9062 20.3941 29.6058 21.0938 30.4688 21.0938C31.3317 21.0938 32.0312 20.3941 32.0312 19.5312C32.0312 16.1913 29.6896 13.3898 26.5625 12.6771V10.9375C26.5625 10.0746 25.863 9.375 25 9.375C24.137 9.375 23.4375 10.0746 23.4375 10.9375V12.6771C20.3104 13.3898 17.9688 16.1913 17.9688 19.5312C17.9688 23.4083 21.1229 26.5625 25 26.5625C27.1539 26.5625 28.9062 28.3148 28.9062 30.4688C28.9062 32.6227 27.1539 34.375 25 34.375C22.8461 34.375 21.0938 32.6227 21.0938 30.4688C21.0938 29.6059 20.3942 28.9062 19.5312 28.9062C18.6683 28.9062 17.9688 29.6059 17.9688 30.4688C17.9688 33.8087 20.3104 36.6102 23.4375 37.3229V39.0625C23.4375 39.9254 24.137 40.625 25 40.625C25.863 40.625 26.5625 39.9254 26.5625 39.0625V37.3229C29.6896 36.6102 32.0312 33.8087 32.0312 30.4688C32.0312 26.5917 28.8771 23.4375 25 23.4375Z" fill="#1F1F1F"/>
</g>
<defs>
<clipPath id="clip0_7383_22">
<rect width="50" height="50" fill="white"/>
</clipPath>
</defs>
</svg>
