<svg width="50" height="50" viewBox="0 0 50 50" fill="none" xmlns="http://www.w3.org/2000/svg">
<path fill-rule="evenodd" clip-rule="evenodd" d="M15.3437 20.7179C15.5509 21.133 15.6674 21.6006 15.6674 22.0946C15.6674 23.8015 14.276 25.1901 12.569 25.1901C10.8622 25.1901 9.47069 23.8015 9.47069 22.0946C9.47069 20.388 10.8624 18.9962 12.569 18.9962C13.2148 18.9962 13.8155 19.1954 14.3127 19.5356L18.0837 16.2509C17.8768 15.8363 17.7601 15.3694 17.7601 14.8765C17.7601 13.1696 19.1526 11.7781 20.8557 11.7781C22.5623 11.7781 23.954 13.1698 23.954 14.8765C23.954 15.0895 23.9323 15.2977 23.8909 15.4989L26.8059 16.9365C27.3747 16.2815 28.2129 15.8662 29.1451 15.8662C29.6916 15.8662 30.2053 16.0089 30.6514 16.2587L34.794 11.9346C34.5038 11.4629 34.3363 10.9081 34.3363 10.3151C34.3363 8.60818 35.7248 7.21671 37.4318 7.21671C39.1383 7.21671 40.5301 8.60847 40.5301 10.3151C40.5301 12.0218 39.1383 13.4136 37.4318 13.4136C36.8853 13.4136 36.3716 13.2709 35.9255 13.0211L31.7828 17.3451C32.073 17.8169 32.2407 18.3717 32.2407 18.9646C32.2407 20.668 30.8523 22.0601 29.1451 22.0601C27.4382 22.0601 26.0468 20.6677 26.0468 18.9646C26.0468 18.7515 26.0684 18.5434 26.1097 18.3422L23.1933 16.9039C22.6246 17.5574 21.7871 17.972 20.8557 17.972C20.2114 17.972 19.6116 17.7729 19.1149 17.433L15.3437 20.7179ZM20.8557 16.4034C21.698 16.4034 22.3854 15.717 22.3854 14.8765C22.3854 14.0339 21.6982 13.3467 20.8557 13.3467C20.0152 13.3467 19.3287 14.0342 19.3287 14.8765C19.3287 15.7167 20.0155 16.4034 20.8557 16.4034ZM29.1451 20.4915C29.9873 20.4915 30.6721 19.8048 30.6721 18.9646C30.6721 18.1223 29.9874 17.4348 29.1451 17.4348C28.3025 17.4348 27.6154 18.122 27.6154 18.9646C27.6154 19.805 28.3027 20.4915 29.1451 20.4915ZM37.4318 11.8449C38.2743 11.8449 38.9615 11.1578 38.9615 10.3151C38.9615 9.47249 38.2743 8.78533 37.4318 8.78533C36.5894 8.78533 35.9049 9.47278 35.9049 10.3151C35.9049 11.1575 36.5894 11.8449 37.4318 11.8449ZM12.569 23.6215C13.4114 23.6215 14.0988 22.937 14.0988 22.0946C14.0988 21.252 13.4117 20.5648 12.569 20.5648C11.7265 20.5648 11.0393 21.252 11.0393 22.0946C11.0393 22.937 11.7267 23.6215 12.569 23.6215ZM4.05059 19.1022C3.34637 21.2592 2.96559 23.5618 2.96559 25.9527C2.96559 29.4031 3.75853 32.6696 5.17245 35.5798C5.36157 35.9692 5.19902 36.4389 4.8097 36.628C4.42039 36.8172 3.95069 36.6546 3.76147 36.2652C2.24696 33.1479 1.39696 29.6488 1.39696 25.9527C1.39696 23.2213 1.86118 20.5975 2.7147 18.1558L2.44863 18.3407C2.09323 18.5878 1.60402 18.4997 1.35696 18.1443C1.11 17.7889 1.19794 17.2996 1.55343 17.0526L4.01931 15.3388C4.24539 15.1817 4.53735 15.1545 4.78843 15.2674C5.03961 15.3802 5.21314 15.6165 5.24578 15.8899L5.60157 18.8717C5.65284 19.3016 5.34549 19.6922 4.91569 19.7435C4.50088 19.793 4.12265 19.5085 4.05059 19.1022ZM18.1715 45.6954C20.2931 46.4997 22.5754 46.9878 24.9636 47.0996C28.4102 47.261 31.7103 46.6217 34.6834 45.3455C35.0813 45.1747 35.5428 45.3591 35.7135 45.7569C35.8843 46.1546 35.7 46.6162 35.3022 46.7869C32.1173 48.1541 28.5823 48.8395 24.8903 48.6665C22.1619 48.5388 19.5626 47.9524 17.1635 46.9855L17.3358 47.2599C17.566 47.6266 17.4552 48.1111 17.0885 48.3412C16.722 48.5714 16.2374 48.4605 16.0073 48.094L14.4107 45.5505C14.2643 45.3174 14.2509 45.0245 14.3754 44.779C14.4998 44.5334 14.7439 44.3711 15.0185 44.3513L18.0137 44.1353C18.4455 44.1043 18.8213 44.4295 18.8524 44.8612C18.8825 45.2779 18.5806 45.6424 18.1715 45.6954ZM32.926 3.01455L32.7537 2.74014C32.5236 2.37347 32.6344 1.88896 33.001 1.65886C33.3676 1.42867 33.8522 1.53955 34.0823 1.90612L35.6789 4.44955C35.8253 4.68269 35.8387 4.97553 35.7142 5.22112C35.5897 5.46671 35.3456 5.62896 35.0711 5.64876L32.0758 5.86474C31.644 5.89582 31.2682 5.57063 31.2372 5.13886C31.2071 4.7222 31.5089 4.35769 31.9181 4.30465C29.7965 3.50033 27.5142 3.01229 25.1259 2.90043C21.6793 2.73906 18.3792 3.37837 15.4061 4.65455C15.0083 4.82533 14.5468 4.64102 14.3761 4.24318C14.2053 3.84543 14.3896 3.38386 14.7874 3.21318C17.9723 1.84602 21.5073 1.16063 25.1993 1.33357C27.9276 1.46131 30.5269 2.04769 32.926 3.01455ZM45.3873 32.8565C46.2924 30.7758 46.8891 28.5194 47.1151 26.1394C47.4414 22.7044 46.9609 19.3775 45.8284 16.3467C45.677 15.9412 45.8831 15.489 46.2886 15.3375C46.6941 15.1859 47.1464 15.3922 47.2978 15.7977C48.5109 19.0444 49.0262 22.6081 48.6768 26.2876C48.4184 29.0068 47.7082 31.5749 46.6276 33.9249L46.91 33.766C47.2873 33.5538 47.7659 33.6876 47.9782 34.0648C48.1906 34.4421 48.0567 34.9207 47.6794 35.133L45.0625 36.606C44.8226 36.741 44.5294 36.7404 44.2901 36.6044C44.0508 36.4683 43.9004 36.2166 43.8937 35.9414L43.8215 32.9393C43.8111 32.5065 44.1539 32.1467 44.5867 32.1363C45.0043 32.1263 45.354 32.4452 45.3873 32.8565ZM18.6258 23.1598H23.0884C23.5216 23.1598 23.8727 23.511 23.8727 23.9442V40.0383C23.8727 40.4714 23.5216 40.8226 23.0884 40.8226H18.6258C18.1925 40.8226 17.8415 40.4714 17.8415 40.0383V23.9442C17.8415 23.511 18.1925 23.1598 18.6258 23.1598ZM19.4101 24.7285V39.254H22.3041V24.7285H19.4101ZM26.9124 26.2027H31.375C31.8082 26.2027 32.1593 26.5539 32.1593 26.987V40.0383C32.1593 40.4714 31.8082 40.8226 31.375 40.8226H26.9124C26.4792 40.8226 26.128 40.4714 26.128 40.0383V26.987C26.128 26.5539 26.4792 26.2027 26.9124 26.2027ZM27.6967 27.7713V39.254H30.5907V27.7713H27.6967ZM35.2019 17.3035H39.6645C40.0976 17.3035 40.4488 17.6546 40.4488 18.0878V40.0383C40.4488 40.4714 40.0976 40.8226 39.6645 40.8226H35.2019C34.7686 40.8226 34.4175 40.4714 34.4175 40.0383V18.0878C34.4175 17.6546 34.7686 17.3035 35.2019 17.3035ZM35.9862 18.8721V39.254H38.8802V18.8721H35.9862ZM10.3363 30.6915H14.8019C15.235 30.6915 15.5862 31.0427 15.5862 31.4758V40.0383C15.5862 40.4714 15.235 40.8226 14.8019 40.8226H10.3363C9.90314 40.8226 9.55196 40.4714 9.55196 40.0383V31.4758C9.55196 31.0427 9.90314 30.6915 10.3363 30.6915ZM11.1206 32.2601V39.254H14.0175V32.2601H11.1206Z" fill="#E3572B"/>
</svg>
