<svg width="50" height="50" viewBox="0 0 50 50" fill="none" xmlns="http://www.w3.org/2000/svg">
<g clip-path="url(#clip0_7381_80)">
<path d="M42.6777 32.3223C39.9548 29.5994 36.7138 27.5837 33.1776 26.3635C36.9649 23.755 39.4531 19.3895 39.4531 14.4531C39.4531 6.48369 32.9694 0 25 0C17.0306 0 10.5469 6.48369 10.5469 14.4531C10.5469 19.3895 13.0351 23.755 16.8225 26.3635C13.2863 27.5837 10.0453 29.5994 7.32236 32.3223C2.60049 37.0442 0 43.3223 0 50H3.90625C3.90625 38.3688 13.3688 28.9062 25 28.9062C36.6312 28.9062 46.0938 38.3688 46.0938 50H50C50 43.3223 47.3995 37.0442 42.6777 32.3223ZM25 25C19.1845 25 14.4531 20.2687 14.4531 14.4531C14.4531 8.6375 19.1845 3.90625 25 3.90625C30.8155 3.90625 35.5469 8.6375 35.5469 14.4531C35.5469 20.2687 30.8155 25 25 25Z" fill="#1F1F1F"/>
</g>
<defs>
<clipPath id="clip0_7381_80">
<rect width="50" height="50" fill="white"/>
</clipPath>
</defs>
</svg>
