<svg width="50" height="50" viewBox="0 0 50 50" fill="none" xmlns="http://www.w3.org/2000/svg">
<path fill-rule="evenodd" clip-rule="evenodd" d="M24.9852 38.2033C22.7506 40.1304 19.9308 42.7486 17.0401 44.6048C14.8401 46.0174 12.5897 46.9829 10.5101 46.9829C5.08613 46.9829 0.687012 42.5838 0.687012 37.1598C0.687012 31.7342 5.08613 27.3367 10.5101 27.3367C12.88 27.3367 15.4758 28.6055 17.9672 30.3369L17.6373 29.1058C17.5252 28.6876 17.7738 28.2572 18.1919 28.1452C18.61 28.0331 19.0404 28.2817 19.1524 28.6998L19.9573 31.7036C20.0695 32.122 19.8211 32.552 19.4027 32.6642L16.3989 33.4691C15.9807 33.5811 15.5503 33.3326 15.4383 32.9145C15.3262 32.4964 15.5748 32.066 15.9929 31.9539C15.9929 31.9539 16.5552 31.8032 17.1172 31.6526C14.9042 30.0973 12.6211 28.904 10.5101 28.904C5.95152 28.904 2.25427 32.5999 2.25427 37.1598C2.25427 41.7184 5.95152 45.4156 10.5101 45.4156C12.3262 45.4156 14.272 44.5196 16.1933 43.286C19.2547 41.3202 22.2293 38.4764 24.4941 36.5614L24.5066 36.5763C26.8134 34.6237 29.8455 31.7395 32.96 29.7399C35.16 28.3274 37.4104 27.3622 39.49 27.3622C44.914 27.3622 49.3131 31.7597 49.3131 37.1854C49.3131 42.6093 44.914 47.0085 39.49 47.0085C37.4104 47.0085 35.16 46.0429 32.96 44.6304C30.0564 42.7659 27.2246 40.1327 24.9852 38.2033ZM26.2036 37.1852C28.3645 39.0599 31.0504 41.5416 33.8068 43.3115C35.7281 44.5452 37.6739 45.4412 39.49 45.4412C44.0486 45.4412 47.7458 41.7439 47.7458 37.1854C47.7458 32.6254 44.0486 28.9296 39.49 28.9296C37.6739 28.9296 35.728 29.8253 33.8068 31.0588C31.0504 32.8285 28.3645 35.31 26.2036 37.1852ZM16.0871 24.3507H6.03466C5.60152 24.3507 5.25034 23.9995 5.25034 23.5664V20.178C5.25034 19.8535 5.45015 19.5625 5.75299 19.4461L8.51584 18.3827C8.90848 16.9042 9.49427 15.4906 10.2633 14.1712L9.05946 11.4635C8.9276 11.1669 8.99201 10.8198 9.22152 10.5903L12.8492 6.96263C13.0787 6.73312 13.4258 6.66871 13.7224 6.80057C13.7224 6.80057 16.43 8.0044 16.43 8.00449C17.7494 7.23548 19.1627 6.64998 20.6372 6.26116L21.7051 3.49342C21.8219 3.19096 22.1127 2.99146 22.4369 2.99146H27.5684C27.893 2.99146 28.1841 3.19146 28.3005 3.49449L29.3636 6.26126C30.8378 6.65018 32.2509 7.23557 33.57 8.0044L36.2777 6.80057C36.5743 6.66871 36.9214 6.73312 37.1509 6.96263L40.7786 10.5903C41.0078 10.8195 41.0724 11.1662 40.9411 11.4625C40.9411 11.4625 39.7416 14.1706 39.7415 14.1706C40.5108 15.4903 41.0965 16.9044 41.4854 18.3831L44.2471 19.4461C44.55 19.5625 44.7498 19.8535 44.7498 20.178V23.5664C44.7498 23.9995 44.3986 24.3507 43.9654 24.3507H33.9181C33.6977 24.3507 33.4874 24.2578 33.3389 24.0951C33.1902 23.9322 33.117 23.7145 33.137 23.495C33.1598 23.2467 33.1713 22.9953 33.1713 22.7412C33.1713 18.2289 29.5123 14.5751 25 14.5751C20.488 14.5751 16.834 18.2291 16.834 22.7412C16.834 22.9953 16.8455 23.2467 16.8682 23.495C16.8882 23.7145 16.815 23.9323 16.6663 24.0951C16.5178 24.2579 16.3075 24.3507 16.0871 24.3507ZM15.2654 22.782C15.2653 22.7684 15.2653 22.7548 15.2653 22.7412C15.2653 17.3623 19.6212 13.0065 25 13.0065C30.3788 13.0065 34.74 17.3624 34.74 22.7412C34.74 22.7548 34.74 22.7684 34.7399 22.782H43.1811V20.7166L40.5417 19.7008C40.3001 19.6077 40.12 19.4016 40.0602 19.1496C39.6817 17.5518 39.0524 16.0325 38.192 14.6363C38.0564 14.4163 38.038 14.1435 38.1426 13.9072L39.2891 11.3191L36.4227 8.45273L33.835 9.60332C33.5985 9.70851 33.3253 9.69018 33.105 9.5544C31.7086 8.69391 30.1893 8.06459 28.5962 7.68597C28.3445 7.62616 28.1384 7.44587 28.0454 7.2042L27.0296 4.56008H22.975L21.9542 7.20528C21.8611 7.44646 21.6552 7.62626 21.4039 7.68597C19.8108 8.06459 18.2915 8.69391 16.8951 9.5544C16.6748 9.69018 16.4016 9.70851 16.165 9.60332L13.5774 8.45273L10.7116 11.3185L11.8622 13.9062C11.9674 14.1427 11.9491 14.4159 11.8133 14.6363C10.9525 16.0332 10.323 17.5532 9.93927 19.1518C9.87907 19.4027 9.69927 19.608 9.45838 19.7008L6.81897 20.7166V22.782H15.2654ZM28.713 22.1414L25 17.4296L21.2871 22.1414H22.5396C22.9728 22.1414 23.3239 22.4924 23.3239 22.9257V30.1734C23.3239 30.6063 22.9725 30.9577 22.5396 30.9577C22.1067 30.9577 21.7552 30.6063 21.7552 30.1734V23.71H20.7942C19.6775 23.71 19.0642 22.4283 19.7472 21.5611L19.7474 21.5609L23.9567 16.2192C24.4902 15.5367 25.5099 15.5367 26.0434 16.2192L30.2529 21.5611C30.9359 22.4283 30.3226 23.71 29.2059 23.71H28.2449V30.1734C28.2449 30.6063 27.8934 30.9577 27.4605 30.9577C27.0276 30.9577 26.6762 30.6063 26.6762 30.1734V22.9257C26.6762 22.4924 27.0273 22.1414 27.4605 22.1414H28.713Z" fill="#E3572B"/>
</svg>
