<svg width="50" height="50" viewBox="0 0 50 50" fill="none" xmlns="http://www.w3.org/2000/svg">
<path d="M9.20591 16.5959C9.20591 16.62 9.19175 16.6417 9.19175 16.6667C9.19691 16.7075 9.20499 16.7479 9.21591 16.7875C9.45877 20.807 11.2202 24.5839 14.1434 27.3534C16.2894 29.3935 17.503 32.2257 17.5001 35.1867V35.8334C16.5121 35.829 15.615 36.4094 15.2141 37.3124C14.8131 38.2154 14.9842 39.2701 15.6501 40C14.9842 40.73 14.8131 41.7846 15.2141 42.6876C15.615 43.5907 16.5121 44.1711 17.5001 44.1667H18.3909C18.8084 47.4991 21.6416 49.9995 25.0001 49.9995C28.3586 49.9995 31.1917 47.4991 31.6092 44.1667H32.5001C33.4881 44.1711 34.3852 43.5907 34.7861 42.6876C35.187 41.7846 35.0159 40.73 34.3501 40C35.0159 39.2701 35.187 38.2154 34.7861 37.3124C34.3852 36.4094 33.4881 35.829 32.5001 35.8334V35.1867C32.4988 32.2255 33.7131 29.3936 35.8592 27.3534C40.3462 23.1249 41.9706 16.6764 40.0223 10.8269C38.0739 4.97742 32.9072 0.790875 26.7809 0.0975189C25.9332 0.0111333 25.0801 -0.0089277 24.2292 0.0375189C24.2076 0.0358523 24.1884 0.0250189 24.1667 0.0250189C24.1336 0.0295145 24.1007 0.0361957 24.0684 0.0450189C20.4937 0.235473 17.0927 1.64753 14.4342 4.04502C11.0859 7.0495 9.17114 11.3347 9.16675 15.8334C9.16675 16.0892 9.19425 16.3409 9.20591 16.5959ZM15.2892 26.1409C12.8579 23.8692 11.3152 20.8059 10.9376 17.5H13.9751C14.0156 17.4949 14.0557 17.4869 14.0951 17.4759C14.1553 17.4702 14.2148 17.4582 14.2726 17.44C14.3293 17.4144 14.383 17.3826 14.4326 17.345C14.4677 17.3273 14.5014 17.307 14.5334 17.2842C14.5392 17.2842 14.5409 17.2734 14.5459 17.2684C14.5908 17.2202 14.6299 17.1671 14.6626 17.11C14.6888 17.0765 14.7124 17.0412 14.7334 17.0042C14.7487 16.9594 14.7601 16.9134 14.7676 16.8667C14.7863 16.8082 14.7986 16.7478 14.8042 16.6867C14.8042 16.68 14.8042 16.6742 14.8042 16.6667C14.7993 16.6261 14.7909 16.5859 14.7792 16.5467C14.7745 16.4863 14.7625 16.4267 14.7434 16.3692C14.7183 16.3122 14.6864 16.2585 14.6484 16.2092C14.6308 16.1739 14.6108 16.1399 14.5884 16.1075C14.3155 15.8033 14.1652 15.4087 14.1667 15C14.1667 14.0795 14.9129 13.3334 15.8334 13.3334C16.7539 13.3334 17.5001 14.0795 17.5001 15C17.5005 15.4092 17.3487 15.804 17.0742 16.1075C17.0516 16.1398 17.0315 16.1737 17.0142 16.2092C16.9764 16.2586 16.9445 16.3123 16.9192 16.3692C16.9002 16.4267 16.8881 16.4863 16.8834 16.5467C16.8717 16.5859 16.8634 16.6261 16.8584 16.6667V16.6867C16.864 16.7481 16.8762 16.8088 16.8951 16.8675C16.9025 16.914 16.914 16.9597 16.9292 17.0042C16.9502 17.0416 16.9742 17.0773 17.0009 17.1109C17.033 17.1678 17.0719 17.2207 17.1167 17.2684C17.1217 17.2734 17.1234 17.28 17.1292 17.2842C17.1695 17.3149 17.2127 17.3415 17.2584 17.3634C17.2963 17.3918 17.3367 17.4167 17.3792 17.4375C17.4771 17.4779 17.5817 17.4992 17.6876 17.5H23.3334V24.1667C23.3385 24.2072 23.3466 24.2473 23.3576 24.2867C23.3617 24.4107 23.4079 24.5297 23.4884 24.6242C23.5063 24.6595 23.5266 24.6934 23.5492 24.7259C23.5492 24.7309 23.5601 24.7325 23.5651 24.7375C23.6132 24.7829 23.6667 24.8224 23.7242 24.855C23.7577 24.8809 23.7927 24.9046 23.8292 24.9258C23.8741 24.9408 23.9201 24.9523 23.9667 24.96C24.0253 24.9785 24.0856 24.9905 24.1467 24.9959H24.1667C24.2662 24.9758 24.3656 24.9558 24.4651 24.9359C24.5217 24.9106 24.5751 24.8787 24.6242 24.8409C24.6595 24.823 24.6935 24.8027 24.7259 24.78C25.0301 24.5072 25.4248 24.3569 25.8334 24.3584C26.7539 24.3584 27.5001 25.1045 27.5001 26.025C27.5001 26.9455 26.7539 27.6917 25.8334 27.6917C25.4244 27.6925 25.0297 27.5406 24.7267 27.2659C24.6931 27.2421 24.6578 27.2209 24.6209 27.2025C24.5724 27.1663 24.5201 27.1353 24.4651 27.11C24.406 27.0912 24.3451 27.0789 24.2834 27.0733C24.2452 27.0626 24.2062 27.0548 24.1667 27.05C24.1603 27.051 24.1539 27.0524 24.1476 27.0542C24.0818 27.0591 24.0169 27.072 23.9542 27.0925C23.9124 27.0997 23.8712 27.11 23.8309 27.1234C23.7893 27.1458 23.7499 27.1724 23.7134 27.2025C23.6604 27.2331 23.611 27.2694 23.5659 27.3109C23.5609 27.3167 23.5542 27.3183 23.5492 27.3233C23.525 27.3569 23.5038 27.3926 23.4859 27.43C23.4492 27.478 23.4182 27.53 23.3934 27.585C23.3741 27.6445 23.3618 27.706 23.3567 27.7683C23.346 27.806 23.3382 27.8445 23.3334 27.8834V35.8334H19.1667V35.1867C19.1696 31.7665 17.7663 28.4956 15.2859 26.1409H15.2892ZM25.0001 48.3333C22.5612 48.3303 20.4791 46.5709 20.0692 44.1667H29.9309C29.5211 46.5709 27.439 48.3303 25.0001 48.3333ZM32.5001 42.5H17.5001C17.0398 42.5 16.6667 42.1269 16.6667 41.6667C16.6667 41.2064 17.0398 40.8333 17.5001 40.8333H32.5001C32.9603 40.8333 33.3334 41.2064 33.3334 41.6667C33.3334 42.1269 32.9603 42.5 32.5001 42.5ZM33.3334 38.3334C33.3334 38.7936 32.9603 39.1667 32.5001 39.1667H17.5001C17.0398 39.1667 16.6667 38.7936 16.6667 38.3334C16.6667 37.8731 17.0398 37.5 17.5001 37.5H32.5001C32.9603 37.5 33.3334 37.8731 33.3334 38.3334ZM34.7167 26.1383C32.2358 28.494 30.8317 31.7655 30.8334 35.1867V35.8334H25.0001V29.2392C25.2716 29.3144 25.5517 29.3545 25.8334 29.3584C27.137 29.3774 28.332 28.6347 28.8921 27.4574C29.4522 26.2802 29.2746 24.8844 28.4374 23.885C27.6003 22.8855 26.2573 22.4659 25.0001 22.8109V17.5H29.2859C28.9132 18.8563 29.4319 20.3005 30.5823 21.1098C31.7328 21.919 33.2674 21.919 34.4178 21.1098C35.5683 20.3005 36.087 18.8563 35.7142 17.5H39.0709C38.6886 20.8043 37.1455 23.8656 34.7167 26.1383ZM26.6001 1.75419C33.126 2.50614 38.284 7.63657 39.0709 14.1584C39.1346 14.7144 39.1666 15.2737 39.1667 15.8334H34.3584C34.3186 15.838 34.2793 15.8461 34.2409 15.8575C34.1797 15.8623 34.1193 15.8743 34.0609 15.8934C33.9739 15.9452 33.887 15.9971 33.8001 16.0492C33.7942 16.0492 33.7926 16.06 33.7876 16.065C33.7427 16.1126 33.7038 16.1655 33.6717 16.2225C33.645 16.2561 33.6211 16.2918 33.6001 16.3292C33.5848 16.3737 33.5734 16.4194 33.5659 16.4659C33.5471 16.5246 33.5348 16.5852 33.5292 16.6467C33.5292 16.6534 33.5251 16.6592 33.5251 16.6667C33.53 16.7073 33.5384 16.7475 33.5501 16.7867C33.5548 16.8471 33.5668 16.9067 33.5859 16.9642C33.6112 17.0211 33.6431 17.0748 33.6809 17.1242C33.6982 17.1596 33.7182 17.1936 33.7409 17.2259C34.0153 17.5294 34.1671 17.9241 34.1667 18.3334C34.1667 19.2538 33.4206 20 32.5001 20C31.5796 20 30.8334 19.2538 30.8334 18.3334C30.833 17.9241 30.9848 17.5294 31.2592 17.2259C31.2816 17.1934 31.3017 17.1594 31.3192 17.1242C31.3572 17.0749 31.3891 17.0212 31.4142 16.9642C31.4333 16.9067 31.4454 16.8471 31.4501 16.7867C31.4618 16.7475 31.4701 16.7073 31.4751 16.6667C31.4751 16.6592 31.4709 16.6534 31.4709 16.6467C31.4653 16.5855 31.453 16.5252 31.4342 16.4667C31.4268 16.42 31.4154 16.374 31.4001 16.3292C31.3791 16.2922 31.3554 16.2568 31.3292 16.2234C31.2966 16.1663 31.2574 16.1131 31.2126 16.065C31.2076 16.06 31.2059 16.0534 31.2001 16.0492C31.1678 16.0264 31.1338 16.006 31.0984 15.9884C31.0491 15.9509 30.9957 15.919 30.9392 15.8934C30.8809 15.8743 30.8205 15.8623 30.7592 15.8575C30.7208 15.8461 30.6815 15.838 30.6417 15.8334H25.0001V10.1917C24.995 10.1511 24.9869 10.111 24.9759 10.0717C24.9707 10.0114 24.9587 9.9518 24.9401 9.89419C24.9147 9.83738 24.8828 9.7837 24.8451 9.73418C24.8272 9.69891 24.8069 9.66493 24.7842 9.63252C24.7842 9.62752 24.7734 9.62585 24.7684 9.62085C24.7214 9.57656 24.6694 9.53796 24.6134 9.50585C24.579 9.47857 24.5425 9.45405 24.5042 9.43252C24.4605 9.4179 24.4156 9.40675 24.3701 9.39919C24.3107 9.38043 24.2496 9.36813 24.1876 9.36252C24.1801 9.36252 24.1742 9.36252 24.1667 9.36252C24.1259 9.36752 24.0855 9.37559 24.0459 9.38668C23.9859 9.39235 23.9267 9.40436 23.8692 9.42252C23.8121 9.44809 23.7581 9.48025 23.7084 9.51835C23.6733 9.53562 23.6395 9.55568 23.6076 9.57835C23.3034 9.8512 22.9087 10.0015 22.5001 10C21.5796 10 20.8334 9.25383 20.8334 8.33335C20.8334 7.41288 21.5796 6.66669 22.5001 6.66669C22.9093 6.66639 23.304 6.81815 23.6076 7.09252C23.64 7.11516 23.674 7.13549 23.7092 7.15335C23.7589 7.19089 23.8125 7.22276 23.8692 7.24835C23.927 7.26659 23.9865 7.2786 24.0467 7.28418C24.0861 7.2952 24.1262 7.30327 24.1667 7.30835H24.1876C24.2491 7.30314 24.3098 7.29083 24.3684 7.27168C24.4145 7.26412 24.4599 7.25298 24.5042 7.23835C24.5418 7.2168 24.5777 7.19257 24.6117 7.16585C24.6683 7.13354 24.7209 7.09466 24.7684 7.05002C24.7734 7.04502 24.7801 7.04335 24.7842 7.03835C24.8069 7.00594 24.8272 6.97196 24.8451 6.93669C24.8828 6.88717 24.9147 6.83349 24.9401 6.77668C24.9587 6.71907 24.9707 6.65952 24.9759 6.59918C24.9871 6.55847 24.9952 6.51696 25.0001 6.47502V1.66669C25.5346 1.66738 26.0687 1.69659 26.6001 1.75419ZM15.5467 5.28252C17.7123 3.32796 20.435 2.09977 23.3334 1.77002V5.11918C21.9772 4.74646 20.5329 5.26516 19.7237 6.41561C18.9145 7.56606 18.9145 9.10065 19.7237 10.2511C20.5329 11.4015 21.9772 11.9202 23.3334 11.5475V15.8334H19.0476C19.4203 14.4771 18.9016 13.0328 17.7512 12.2236C16.6007 11.4144 15.0661 11.4144 13.9157 12.2236C12.7652 13.0328 12.2465 14.4771 12.6192 15.8334H10.8334C10.8368 11.8071 12.5502 7.97168 15.5467 5.28252Z" fill="#E3572B"/>
<path d="M49.1667 15H43.3333C42.8731 15 42.5 15.3731 42.5 15.8333C42.5 16.2936 42.8731 16.6667 43.3333 16.6667H49.1667C49.6269 16.6667 50 16.2936 50 15.8333C50 15.3731 49.6269 15 49.1667 15Z" fill="#E3572B"/>
<path d="M40.8783 7.50002C41.0246 7.50033 41.1684 7.4618 41.295 7.38835L46.3458 4.47169C46.741 4.24002 46.8751 3.73281 46.646 3.33611C46.417 2.9394 45.9107 2.80194 45.5125 3.02835L40.4616 5.94502C40.135 6.13361 39.9758 6.51807 40.0734 6.88237C40.171 7.24668 40.5011 7.5 40.8783 7.50002Z" fill="#E3572B"/>
<path d="M40.1557 24.5834C39.9256 24.982 40.0622 25.4916 40.4607 25.7217L45.5116 28.6384C45.9098 28.8648 46.4161 28.7274 46.6451 28.3307C46.8742 27.9339 46.7401 27.4267 46.3449 27.1951L41.2941 24.2784C40.8955 24.0483 40.3859 24.1848 40.1557 24.5834Z" fill="#E3572B"/>
<path d="M0.833333 16.6667H6.66667C7.1269 16.6667 7.5 16.2936 7.5 15.8333C7.5 15.3731 7.1269 15 6.66667 15H0.833333C0.373096 15 0 15.3731 0 15.8333C0 16.2936 0.373096 16.6667 0.833333 16.6667Z" fill="#E3572B"/>
<path d="M3.6551 4.4717L8.70593 7.38837C8.96391 7.53961 9.28314 7.54102 9.54244 7.39208C9.80175 7.24314 9.96137 6.96667 9.96072 6.66764C9.96006 6.3686 9.79922 6.09284 9.53926 5.94504L4.48843 3.02837C4.23045 2.87713 3.91122 2.87572 3.65192 3.02466C3.39261 3.1736 3.23299 3.45007 3.23364 3.74911C3.2343 4.04814 3.39514 4.3239 3.6551 4.4717Z" fill="#E3572B"/>
<path d="M8.70593 24.2784L3.6551 27.195C3.39514 27.3428 3.2343 27.6186 3.23364 27.9176C3.23299 28.2167 3.39261 28.4931 3.65192 28.6421C3.91122 28.791 4.23045 28.7896 4.48843 28.6384L9.53926 25.7217C9.93444 25.49 10.0685 24.9828 9.83949 24.5861C9.61045 24.1894 9.10415 24.0519 8.70593 24.2784Z" fill="#E3572B"/>
</svg>
