<svg width="48" height="48" viewBox="0 0 48 48" fill="none" xmlns="http://www.w3.org/2000/svg">
<path fill-rule="evenodd" clip-rule="evenodd" d="M14.3432 19.7179C14.5504 20.133 14.667 20.6006 14.667 21.0946C14.667 22.8015 13.2755 24.1901 11.5685 24.1901C9.86167 24.1901 8.4702 22.8015 8.4702 21.0946C8.4702 19.388 9.86196 17.9962 11.5685 17.9962C12.2143 17.9962 12.815 18.1954 13.3123 18.5356L17.0832 15.2509C16.8763 14.8363 16.7596 14.3694 16.7596 13.8765C16.7596 12.1696 18.1522 10.7781 19.8552 10.7781C21.5618 10.7781 22.9535 12.1698 22.9535 13.8765C22.9535 14.0895 22.9318 14.2977 22.8904 14.4989L25.8054 15.9365C26.3742 15.2815 27.2125 14.8662 28.1446 14.8662C28.6911 14.8662 29.2048 15.0089 29.6509 15.2587L33.7935 10.9346C33.5033 10.4629 33.3358 9.90808 33.3358 9.31514C33.3358 7.60818 34.7243 6.21671 36.4313 6.21671C38.1378 6.21671 39.5296 7.60847 39.5296 9.31514C39.5296 11.0218 38.1378 12.4136 36.4313 12.4136C35.8848 12.4136 35.3711 12.2709 34.925 12.0211L30.7824 16.3451C31.0725 16.8169 31.2402 17.3717 31.2402 17.9646C31.2402 19.668 29.8519 21.0601 28.1446 21.0601C26.4377 21.0601 25.0463 19.6677 25.0463 17.9646C25.0463 17.7515 25.0679 17.5434 25.1092 17.3422L22.1928 15.9039C21.6241 16.5574 20.7866 16.972 19.8552 16.972C19.2109 16.972 18.6111 16.7729 18.1144 16.433L14.3432 19.7179ZM19.8552 15.4034C20.6975 15.4034 21.3849 14.717 21.3849 13.8765C21.3849 13.0339 20.6977 12.3467 19.8552 12.3467C19.0147 12.3467 18.3282 13.0342 18.3282 13.8765C18.3282 14.7167 19.015 15.4034 19.8552 15.4034ZM28.1446 19.4915C28.9868 19.4915 29.6716 18.8048 29.6716 17.9646C29.6716 17.1223 28.987 16.4348 28.1446 16.4348C27.3021 16.4348 26.6149 17.122 26.6149 17.9646C26.6149 18.805 27.3023 19.4915 28.1446 19.4915ZM36.4313 10.8449C37.2738 10.8449 37.961 10.1578 37.961 9.31514C37.961 8.47249 37.2738 7.78533 36.4313 7.78533C35.5889 7.78533 34.9044 8.47278 34.9044 9.31514C34.9044 10.1575 35.5889 10.8449 36.4313 10.8449ZM11.5685 22.6215C12.4109 22.6215 13.0983 21.937 13.0983 21.0946C13.0983 20.252 12.4112 19.5648 11.5685 19.5648C10.726 19.5648 10.0388 20.252 10.0388 21.0946C10.0388 21.937 10.7262 22.6215 11.5685 22.6215ZM3.0501 18.1022C2.34588 20.2592 1.9651 22.5618 1.9651 24.9527C1.9651 28.4031 2.75804 31.6696 4.17196 34.5798C4.36108 34.9692 4.19853 35.4389 3.80922 35.628C3.4199 35.8172 2.9502 35.6546 2.76098 35.2652C1.24647 32.1479 0.396471 28.6488 0.396471 24.9527C0.396471 22.2213 0.860687 19.5975 1.71422 17.1558L1.44814 17.3407C1.09275 17.5878 0.60353 17.4997 0.356471 17.1443C0.109511 16.7889 0.197452 16.2996 0.552942 16.0526L3.01882 14.3388C3.2449 14.1817 3.53686 14.1545 3.78794 14.2674C4.03912 14.3802 4.21265 14.6165 4.24529 14.8899L4.60108 17.8717C4.65235 18.3016 4.345 18.6922 3.9152 18.7435C3.50039 18.793 3.12216 18.5085 3.0501 18.1022ZM17.171 44.6954C19.2926 45.4997 21.5749 45.9878 23.9631 46.0996C27.4097 46.261 30.7098 45.6217 33.6829 44.3455C34.0808 44.1747 34.5424 44.3591 34.713 44.7569C34.8838 45.1546 34.6995 45.6162 34.3017 45.7869C31.1169 47.1541 27.5818 47.8395 23.8898 47.6665C21.1614 47.5388 18.5622 46.9524 16.163 45.9855L16.3353 46.2599C16.5655 46.6266 16.4547 47.1111 16.088 47.3412C15.7215 47.5714 15.237 47.4605 15.0068 47.094L13.4102 44.5505C13.2638 44.3174 13.2504 44.0245 13.3749 43.779C13.4993 43.5334 13.7434 43.3711 14.018 43.3513L17.0132 43.1353C17.445 43.1043 17.8208 43.4295 17.852 43.8612C17.882 44.2779 17.5801 44.6424 17.171 44.6954ZM31.9255 2.01455L31.7532 1.74014C31.5231 1.37347 31.6339 0.88896 32.0005 0.658862C32.3672 0.428666 32.8517 0.539548 33.0818 0.906117L34.6784 3.44955C34.8248 3.68269 34.8382 3.97553 34.7137 4.22112C34.5892 4.46671 34.3451 4.62896 34.0706 4.64876L31.0753 4.86474C30.6435 4.89582 30.2677 4.57063 30.2367 4.13886C30.2066 3.7222 30.5084 3.35769 30.9176 3.30465C28.796 2.50033 26.5137 2.01229 24.1254 1.90043C20.6788 1.73906 17.3787 2.37837 14.4056 3.65455C14.0078 3.82533 13.5463 3.64102 13.3756 3.24318C13.2048 2.84543 13.3891 2.38386 13.7869 2.21318C16.9718 0.846019 20.5068 0.160627 24.1988 0.333568C26.9272 0.461313 29.5264 1.04769 31.9255 2.01455ZM44.3868 31.8565C45.2919 29.7758 45.8886 27.5194 46.1146 25.1394C46.4409 21.7044 45.9604 18.3775 44.8279 15.3467C44.6765 14.9412 44.8826 14.489 45.2881 14.3375C45.6936 14.1859 46.1459 14.3922 46.2973 14.7977C47.5104 18.0444 48.0257 21.6081 47.6763 25.2876C47.4179 28.0068 46.7077 30.5749 45.6272 32.9249L45.9095 32.766C46.2868 32.5538 46.7654 32.6876 46.9777 33.0648C47.1901 33.4421 47.0562 33.9207 46.6789 34.133L44.0621 35.606C43.8222 35.741 43.5289 35.7404 43.2896 35.6044C43.0503 35.4683 42.8999 35.2166 42.8932 34.9414L42.821 31.9393C42.8106 31.5065 43.1534 31.1467 43.5862 31.1363C44.0038 31.1263 44.3535 31.4452 44.3868 31.8565ZM17.6253 22.1598H22.0879C22.5211 22.1598 22.8723 22.511 22.8723 22.9442V39.0383C22.8723 39.4714 22.5211 39.8226 22.0879 39.8226H17.6253C17.1921 39.8226 16.841 39.4714 16.841 39.0383V22.9442C16.841 22.511 17.1921 22.1598 17.6253 22.1598ZM18.4096 23.7285V38.254H21.3036V23.7285H18.4096ZM25.9119 25.2027H30.3745C30.8077 25.2027 31.1588 25.5539 31.1588 25.987V39.0383C31.1588 39.4714 30.8077 39.8226 30.3745 39.8226H25.9119C25.4787 39.8226 25.1276 39.4714 25.1276 39.0383V25.987C25.1276 25.5539 25.4787 25.2027 25.9119 25.2027ZM26.6962 26.7713V38.254H29.5902V26.7713H26.6962ZM34.2014 16.3035H38.664C39.0972 16.3035 39.4483 16.6546 39.4483 17.0878V39.0383C39.4483 39.4714 39.0972 39.8226 38.664 39.8226H34.2014C33.7681 39.8226 33.4171 39.4714 33.4171 39.0383V17.0878C33.4171 16.6546 33.7681 16.3035 34.2014 16.3035ZM34.9857 17.8721V38.254H37.8797V17.8721H34.9857ZM9.33578 29.6915H13.8014C14.2345 29.6915 14.5857 30.0427 14.5857 30.4758V39.0383C14.5857 39.4714 14.2345 39.8226 13.8014 39.8226H9.33578C8.90265 39.8226 8.55147 39.4714 8.55147 39.0383V30.4758C8.55147 30.0427 8.90265 29.6915 9.33578 29.6915ZM10.1201 31.2601V38.254H13.0171V31.2601H10.1201Z" fill="#E3572B"/>
</svg>
