<svg width="50" height="50" viewBox="0 0 50 50" fill="none" xmlns="http://www.w3.org/2000/svg">
<path d="M41.3766 30.0732L32.5725 35.2013C32.1311 35.4583 31.6823 35.6398 31.2138 35.7481C31.3874 35.4697 31.5234 35.1549 31.6168 34.8062C32.0668 33.1265 31.0684 31.3727 29.3438 30.8136C29.3103 30.8027 29.2762 30.7941 29.2416 30.7879C26.7112 30.3315 24.2137 29.4286 22.207 28.7031C21.5098 28.4511 20.8514 28.213 20.2916 28.0315C18.0378 27.3003 16 28.2056 14.304 29.1874L7.75378 32.9798L7.1362 31.8886C6.86364 31.4068 6.41843 31.0599 5.88269 30.9113C5.34714 30.7628 4.78669 30.8312 4.30495 31.1038L1.83474 32.502C1.3529 32.7746 1.00583 33.2197 0.857295 33.7555C0.70876 34.2912 0.777217 34.8516 1.04987 35.3332L8.31228 48.1654C8.58483 48.6471 9.03005 48.9941 9.56579 49.1427C9.75105 49.194 9.93923 49.2194 10.1261 49.2194C10.4797 49.2194 10.8284 49.1285 11.1435 48.9502L13.6138 47.5521C14.0956 47.2795 14.4425 46.8344 14.5911 46.2986C14.7396 45.7629 14.6712 45.2025 14.3985 44.7209L13.6498 43.3979L15.1429 42.5357L26.4193 45.5572C27.0561 45.728 27.6813 45.8132 28.293 45.8132C29.5126 45.8132 30.6784 45.4744 31.7756 44.7989L47.7531 34.9606C49.2095 34.064 49.6716 31.8039 48.7224 30.2191C48.2616 29.4498 46.3703 27.1651 41.3766 30.0732ZM13.0854 45.8813C13.0483 46.0147 12.9628 46.1253 12.8442 46.1923L10.3739 47.5903C10.1312 47.7279 9.80974 47.639 9.67194 47.3958L2.40964 34.5637C2.34255 34.4452 2.32614 34.3064 2.36306 34.1729C2.40007 34.0394 2.48571 33.9288 2.60427 33.8618L5.07448 32.4638C5.15163 32.4201 5.23737 32.3979 5.32468 32.3979C5.37145 32.3979 5.41872 32.4043 5.4653 32.4173C5.5988 32.4543 5.70935 32.5399 5.77644 32.6584L13.0388 45.4906C13.1058 45.609 13.1224 45.7478 13.0854 45.8813ZM46.9339 33.6302L30.9563 43.4685C29.6893 44.2485 28.2989 44.4436 26.8238 44.048L15.2348 40.9428C15.0349 40.8894 14.8216 40.9173 14.6421 41.0208L12.8802 42.038L8.52341 34.3397L15.0869 30.5396C16.555 29.6895 18.1436 28.9773 19.8094 29.5178C20.3446 29.6913 20.9615 29.9144 21.6757 30.1726C23.7231 30.9128 26.2676 31.8327 28.9078 32.3153C29.8278 32.6368 30.3423 33.5256 30.1075 34.4019C29.7985 35.5548 28.8376 35.6979 28.0739 35.6103C26.777 35.3436 25.5446 34.9919 24.2407 34.6195C23.6224 34.4429 22.983 34.2604 22.3258 34.0843C21.9094 33.9729 21.4807 34.22 21.369 34.6367C21.2573 35.0534 21.5048 35.4818 21.9215 35.5936C22.5663 35.7663 23.1994 35.9472 23.8116 36.122C25.1554 36.5058 26.4248 36.8683 27.7917 37.1477C27.7968 37.1487 27.802 37.1491 27.8073 37.15C27.8126 37.1509 27.8175 37.1524 27.8227 37.1533L28.9175 37.3313C30.5547 37.5934 32.0078 37.3383 33.3589 36.5514L42.1631 31.4233C44.6972 29.9473 46.6484 29.7972 47.3819 31.0219C47.8874 31.866 47.6613 33.1823 46.9339 33.6302ZM5.79118 34.9421C5.86169 35.424 5.5281 35.8719 5.04606 35.9424C4.56413 36.0128 4.11628 35.6792 4.04577 35.1973C3.97536 34.7153 4.30886 34.2675 4.79089 34.197C5.27292 34.1265 5.72077 34.4601 5.79118 34.9421ZM49.2188 6.05205V4.56484C49.2188 3.01709 47.9595 1.75781 46.4119 1.75781H33.6796C32.1318 1.75781 30.8726 3.01709 30.8726 4.56484V6.05205C30.8726 6.84766 31.2059 7.5665 31.7395 8.07783C31.2059 8.58906 30.8726 9.30791 30.8726 10.1035V11.5907C30.8726 11.7021 30.8797 11.8132 30.8929 11.9235C26.805 12.8473 23.7427 16.5083 23.7427 20.8715C23.7427 25.9296 27.8579 30.0446 32.916 30.0446C36.2974 30.0446 39.257 28.2053 40.8477 25.4749H46.4119C47.9596 25.4749 49.2188 24.2157 49.2188 22.668V21.1807C49.2188 20.3851 48.8855 19.6662 48.3519 19.155C48.8855 18.6438 49.2188 17.9249 49.2188 17.1293V15.6421C49.2188 14.8465 48.8855 14.1277 48.3519 13.6164C48.8855 13.1052 49.2188 12.3863 49.2188 11.5907V10.1035C49.2188 9.30791 48.8855 8.58916 48.3519 8.07783C48.8855 7.5665 49.2188 6.84766 49.2188 6.05205ZM32.916 28.482C28.7194 28.482 25.3052 25.068 25.3052 20.8714C25.3052 16.6748 28.7194 13.2607 32.916 13.2607C37.1126 13.2607 40.5266 16.6748 40.5266 20.8714C40.5266 25.068 37.1125 28.482 32.916 28.482ZM47.6563 21.1807V22.6679C47.6563 23.354 47.098 23.9123 46.4119 23.9123H41.5703C41.9058 22.9602 42.089 21.9369 42.089 20.8714C42.089 20.5558 42.073 20.2437 42.0417 19.9361H46.4118C47.098 19.9361 47.6563 20.4944 47.6563 21.1807ZM47.6563 15.642V17.1292C47.6563 17.8153 47.098 18.3736 46.4119 18.3736H41.7433C41.312 16.8512 40.4965 15.4886 39.4087 14.3976H46.4119C47.098 14.3977 47.6563 14.9559 47.6563 15.642ZM47.6563 10.1034V11.5906C47.6563 12.2769 47.098 12.8351 46.4119 12.8351H37.335C36.0235 12.1109 34.5172 11.6981 32.916 11.6981C32.7572 11.6981 32.5992 11.7022 32.4424 11.7103C32.4385 11.6707 32.4351 11.631 32.4351 11.5906V10.1034C32.4351 9.41728 32.9934 8.85898 33.6796 8.85898H46.4119C47.098 8.85898 47.6563 9.41728 47.6563 10.1034ZM33.6796 7.29648C32.9934 7.29648 32.4351 6.73818 32.4351 6.05195V4.56484C32.4351 3.87861 32.9934 3.32031 33.6796 3.32031H46.4119C47.098 3.32031 47.6563 3.87861 47.6563 4.56484V6.05205C47.6563 6.73828 47.098 7.29658 46.4119 7.29658L33.6796 7.29648ZM36.3689 22.7416C36.4559 23.4583 36.2627 24.1136 35.8101 24.6367C35.3326 25.1888 34.57 25.5723 33.6971 25.7152V26.1817C33.6971 26.6132 33.3473 26.963 32.9159 26.963C32.4844 26.963 32.1346 26.6132 32.1346 26.1817V25.7027C30.8009 25.4484 29.7754 24.56 29.4657 23.3177C29.3614 22.899 29.6162 22.4751 30.0348 22.3707C30.4538 22.2665 30.8774 22.5212 30.9818 22.9398C31.2237 23.9101 32.224 24.2306 33.0067 24.2138C33.6911 24.1975 34.3275 23.9622 34.6282 23.6146C34.7913 23.426 34.8514 23.2085 34.8176 22.9299C34.7607 22.4615 34.4796 21.8883 32.7968 21.6121C30.3442 21.2093 29.7716 19.9342 29.7231 18.9354C29.6559 17.5535 30.6139 16.3976 32.1067 16.0589C32.116 16.0568 32.1252 16.0548 32.1344 16.0527V15.5609C32.1344 15.1295 32.4842 14.7797 32.9157 14.7797C33.3471 14.7797 33.6969 15.1295 33.6969 15.5609V16.0458C34.6786 16.2485 35.6196 16.8596 36.1066 18.0195C36.2737 18.4174 36.0866 18.8753 35.6888 19.0423C35.2912 19.2093 34.8332 19.0224 34.666 18.6244C34.257 17.6506 33.2597 17.3997 32.4523 17.5826C31.8639 17.7161 31.2479 18.1217 31.2837 18.8595C31.296 19.1133 31.3288 19.7875 33.0499 20.0701C35.0774 20.403 36.194 21.3018 36.3689 22.7416ZM16.4492 8.20322H17.9539V17.8654C17.9539 18.2969 18.3037 18.6467 18.7351 18.6467H21.8985C22.33 18.6467 22.6798 18.2969 22.6798 17.8654V8.20322H24.1844C24.4718 8.20322 24.7361 8.04531 24.8724 7.79219C25.0087 7.53906 24.9948 7.23154 24.8365 6.9916L20.9689 1.13213C20.8243 0.913086 20.5793 0.78125 20.3169 0.78125C20.0545 0.78125 19.8094 0.913086 19.6648 1.13213L15.7972 6.9916C15.6389 7.23154 15.6251 7.53906 15.7613 7.79219C15.8975 8.04541 16.1618 8.20322 16.4492 8.20322ZM20.3169 2.98066L22.7327 6.64072H21.8985C21.4671 6.64072 21.1173 6.99053 21.1173 7.42197V17.0842H19.5164V7.42197C19.5164 6.99053 19.1666 6.64072 18.7351 6.64072H17.9009L20.3169 2.98066Z" fill="#E3572B"/>
</svg>
