<svg width="100" height="100" viewBox="0 0 100 100" fill="none" xmlns="http://www.w3.org/2000/svg">
<rect width="100" height="100" rx="50" fill="#0A1F44"/>
<mask id="mask0_162_1668" style="mask-type:alpha" maskUnits="userSpaceOnUse" x="25" y="25" width="50" height="50">
<rect x="25" y="25" width="50" height="50" fill="#D9D9D9"/>
</mask>
<g mask="url(#mask0_162_1668)">
<path d="M49.9999 50.4005C52.6787 50.4005 55.4457 50.1476 58.3009 49.6417C61.1561 49.1354 63.6775 48.4537 65.865 47.5964V66.6667C63.8351 67.5507 61.3806 68.2658 58.5014 68.812C55.6223 69.3582 52.7884 69.6313 49.9999 69.6313C47.2113 69.6313 44.3775 69.3582 41.4983 68.812C38.6191 68.2658 36.1646 67.5507 34.1348 66.6667V47.5964C36.3223 48.4537 38.8436 49.1354 41.6988 49.6417C44.554 50.1476 47.3211 50.4005 49.9999 50.4005ZM62.7405 64.3427V51.8828C61.0443 52.3689 59.0089 52.7643 56.6342 53.0688C54.2599 53.3733 52.0485 53.5255 49.9999 53.5255C47.9513 53.5255 45.7398 53.3733 43.3655 53.0688C40.9908 52.7643 38.9554 52.3689 37.2592 51.8828V64.3427C38.9155 64.9677 40.9322 65.4846 43.3092 65.8932C45.6863 66.3019 47.9165 66.5063 49.9999 66.5063C52.0832 66.5063 54.3134 66.3019 56.6905 65.8932C59.0676 65.4846 61.0842 64.9677 62.7405 64.3427ZM49.9999 30.3688C52.0711 30.3688 53.8441 31.1063 55.3191 32.5813C56.7941 34.0563 57.5316 35.8294 57.5316 37.9005C57.5316 39.9721 56.7941 41.7453 55.3191 43.2203C53.8441 44.6953 52.0711 45.4328 49.9999 45.4328C47.9287 45.4328 46.1556 44.6953 44.6806 43.2203C43.2056 41.7453 42.4681 39.9721 42.4681 37.9005C42.4681 35.8294 43.2056 34.0563 44.6806 32.5813C46.1556 31.1063 47.9287 30.3688 49.9999 30.3688ZM50.0004 42.3078C51.2125 42.3078 52.25 41.8762 53.1129 41.013C53.9757 40.1499 54.4072 39.1122 54.4072 37.9C54.4072 36.6879 53.9756 35.6504 53.1124 34.7875C52.2492 33.925 51.2115 33.4938 49.9993 33.4938C48.7872 33.4938 47.7497 33.9254 46.8869 34.7886C46.024 35.6518 45.5926 36.6894 45.5926 37.9016C45.5926 39.1137 46.0242 40.1511 46.8874 41.0136C47.7506 41.8764 48.7882 42.3078 50.0004 42.3078Z" fill="white"/>
</g>
</svg>
