<svg width="60" height="60" viewBox="0 0 60 60" fill="none" xmlns="http://www.w3.org/2000/svg">
<g clip-path="url(#clip0_7265_183)">
<mask id="mask0_7265_183" style="mask-type:luminance" maskUnits="userSpaceOnUse" x="0" y="0" width="61" height="60">
<path d="M0.000976562 5.72205e-05H60.0008V59.9999H0.000976562V5.72205e-05Z" fill="white"/>
<path fill-rule="evenodd" clip-rule="evenodd" d="M60.0008 5.34058e-05H0.000976562V59.9999H60.0008V5.34058e-05ZM58.243 58.2421H1.75879V1.75787H58.243V58.2421Z" fill="white"/>
</mask>
<g mask="url(#mask0_7265_183)">
<path fill-rule="evenodd" clip-rule="evenodd" d="M43.5496 58.9551C43.7788 59.1203 44.0734 59.1652 44.3414 59.0759L58.4039 54.3884C58.7628 54.2687 59.0048 53.9329 59.0048 53.5546V32.3437C59.0048 32.0612 58.869 31.7959 58.6398 31.6307C58.4107 31.4655 58.116 31.4206 57.848 31.5099L43.7855 36.1974C43.4266 36.317 43.1846 36.6529 43.1846 37.0312V58.2421C43.1846 58.5246 43.3204 58.7899 43.5496 58.9551ZM44.9424 57.0226V37.6647L57.247 33.5631V52.9211L44.9424 57.0226Z" fill="#1F1F1F"/>
<path fill-rule="evenodd" clip-rule="evenodd" d="M44.5773 58.9551C44.8065 58.7899 44.9423 58.5246 44.9423 58.2421V37.0312C44.9423 36.6529 44.7003 36.317 44.3414 36.1974L30.2789 31.5099C30.0109 31.4206 29.7163 31.4655 29.4871 31.6307C29.2579 31.7959 29.1221 32.0612 29.1221 32.3437V53.5546C29.1221 53.9329 29.3641 54.2687 29.723 54.3884L43.7855 59.0759C44.0535 59.1652 44.3482 59.1203 44.5773 58.9551ZM30.8799 52.9211V33.5631L43.1845 37.6647V57.0226L30.8799 52.9211Z" fill="#1F1F1F"/>
<path fill-rule="evenodd" clip-rule="evenodd" d="M43.7855 37.8649C43.9659 37.9251 44.161 37.9251 44.3414 37.8649L58.4038 33.1774C58.7627 33.0578 59.0048 32.722 59.0048 32.3436C59.0048 31.9653 58.7627 31.6295 58.4038 31.5098L44.3414 26.8224C44.161 26.7622 43.9659 26.7622 43.7855 26.8224L29.723 31.5098C29.3641 31.6295 29.1221 31.9653 29.1221 32.3436C29.1221 32.722 29.3641 33.0578 29.723 33.1774L43.7855 37.8649ZM32.7803 32.3436L44.0634 28.5826L55.3465 32.3436L44.0634 36.1047L32.7803 32.3436Z" fill="#1F1F1F"/>
<path fill-rule="evenodd" clip-rule="evenodd" d="M15.4246 58.9551C15.6538 59.1203 15.9484 59.1652 16.2164 59.0759L30.2789 54.3884C30.6378 54.2687 30.8798 53.9329 30.8798 53.5546V32.3437C30.8798 32.0612 30.744 31.7959 30.5148 31.6307C30.2857 31.4655 29.991 31.4206 29.723 31.5099L15.6605 36.1974C15.3016 36.317 15.0596 36.6529 15.0596 37.0312V58.2421C15.0596 58.5246 15.1954 58.7899 15.4246 58.9551ZM16.8174 57.0226V37.6647L29.122 33.5631V52.9211L16.8174 57.0226Z" fill="#1F1F1F"/>
<path fill-rule="evenodd" clip-rule="evenodd" d="M16.4523 58.9551C16.6815 58.7899 16.8173 58.5246 16.8173 58.2421V37.0312C16.8173 36.6529 16.5753 36.317 16.2164 36.1974L2.15391 31.5099C1.88589 31.4206 1.59126 31.4655 1.36207 31.6307C1.13288 31.7959 0.99707 32.0612 0.99707 32.3437V53.5546C0.99707 53.9329 1.23915 54.2687 1.59804 54.3884L15.6605 59.0759C15.9285 59.1652 16.2232 59.1203 16.4523 58.9551ZM2.75488 52.9211V33.5631L15.0595 37.6647V57.0226L2.75488 52.9211Z" fill="#1F1F1F"/>
<path fill-rule="evenodd" clip-rule="evenodd" d="M15.6605 37.8649C15.8409 37.9251 16.036 37.9251 16.2164 37.8649L30.2788 33.1774C30.6377 33.0578 30.8798 32.722 30.8798 32.3436C30.8798 31.9653 30.6377 31.6295 30.2788 31.5098L16.2164 26.8224C16.036 26.7622 15.8409 26.7622 15.6605 26.8224L1.59804 31.5098C1.23915 31.6295 0.99707 31.9653 0.99707 32.3436C0.99707 32.722 1.23915 33.0578 1.59804 33.1774L15.6605 37.8649ZM4.65532 32.3436L15.9384 28.5826L27.2215 32.3436L15.9384 36.1047L4.65532 32.3436Z" fill="#1F1F1F"/>
<path fill-rule="evenodd" clip-rule="evenodd" d="M29.4871 33.0567C29.7163 33.2219 30.0109 33.2669 30.2789 33.1775L44.3414 28.4901C44.7003 28.3704 44.9423 28.0346 44.9423 27.6563V6.44538C44.9423 6.16286 44.8065 5.89757 44.5773 5.73238C44.3482 5.56719 44.0535 5.52224 43.7855 5.61158L29.723 10.2991C29.3641 10.4187 29.1221 10.7546 29.1221 11.1329V32.3437C29.1221 32.6263 29.2579 32.8916 29.4871 33.0567ZM30.8799 31.1243V11.7663L43.1845 7.6648V27.0228L30.8799 31.1243Z" fill="#1F1F1F"/>
<path fill-rule="evenodd" clip-rule="evenodd" d="M30.5148 33.0567C30.744 32.8916 30.8798 32.6263 30.8798 32.3437V11.1329C30.8798 10.7546 30.6378 10.4187 30.2789 10.2991L16.2164 5.61158C15.9484 5.52224 15.6538 5.56719 15.4246 5.73238C15.1954 5.89757 15.0596 6.16286 15.0596 6.44538V27.6563C15.0596 28.0346 15.3016 28.3704 15.6605 28.4901L29.723 33.1775C29.991 33.2669 30.2857 33.2219 30.5148 33.0567ZM16.8174 27.0228V7.6648L29.122 11.7663V31.1243L16.8174 27.0228Z" fill="#1F1F1F"/>
<path fill-rule="evenodd" clip-rule="evenodd" d="M29.723 11.9666C29.9034 12.0268 30.0985 12.0268 30.2789 11.9666L44.3413 7.27913C44.7002 7.1595 44.9423 6.82363 44.9423 6.44533C44.9423 6.06702 44.7002 5.73115 44.3413 5.61152L30.2789 0.924037C30.0985 0.8639 29.9034 0.8639 29.723 0.924037L15.6605 5.61152C15.3016 5.73115 15.0596 6.06702 15.0596 6.44533C15.0596 6.82363 15.3016 7.1595 15.6605 7.27913L29.723 11.9666ZM18.7178 6.44533L30.0009 2.68429L41.284 6.44533L30.0009 10.2064L18.7178 6.44533Z" fill="#1F1F1F"/>
</g>
</g>
<defs>
<clipPath id="clip0_7265_183">
<rect width="60" height="60" fill="white" transform="translate(0.000976562)"/>
</clipPath>
</defs>
</svg>
