<svg width="60" height="60" viewBox="0 0 60 60" fill="none" xmlns="http://www.w3.org/2000/svg">
<path d="M14.8784 21.6094V38.37L30.0003 46.7512L45.1222 38.37V21.6094L30.0003 13.23L14.8784 21.6094ZM43.2472 37.2656L30.0003 44.6081L16.7534 37.2675V22.7156L30.0003 15.3731L43.2472 22.7137V37.2656Z" fill="#1F1F1F"/>
<path d="M60.0001 6.96376C60.0109 5.21342 59.3609 3.52346 58.1799 2.2315C56.999 0.93954 55.3741 0.140712 53.6298 -0.00539301C51.8856 -0.151498 50.1504 0.365878 48.771 1.44337C47.3915 2.52087 46.4694 4.07914 46.1889 5.80688H13.8114C13.5308 4.07914 12.6087 2.52087 11.2293 1.44337C9.84988 0.365878 8.11471 -0.151498 6.37045 -0.00539301C4.62619 0.140712 3.00127 0.93954 1.82032 2.2315C0.639376 3.52346 -0.0106416 5.21342 0.000131807 6.96376C0.00211257 8.60745 0.586542 10.1973 1.64964 11.4509C2.71274 12.7045 4.18572 13.5408 5.80701 13.8113V46.1906C4.18587 46.4607 2.71293 47.2966 1.64981 48.5499C0.586677 49.8032 0.00218066 51.3928 0.000131807 53.0363C0.000131807 54.8832 0.733811 56.6544 2.03977 57.9604C3.34572 59.2663 5.11698 60 6.96388 60C10.1383 60 12.7858 57.8625 13.6239 54.96H46.3745C47.2145 57.8625 49.862 60 53.0364 60C54.8833 60 56.6545 59.2663 57.9605 57.9604C59.2665 56.6544 60.0001 54.8832 60.0001 53.0363C60.0001 49.8619 57.8626 47.2144 54.9601 46.3763V13.6238C57.8626 12.7856 60.0001 10.1381 60.0001 6.96376ZM53.0364 1.87501C54.3857 1.876 55.6795 2.41245 56.6336 3.36656C57.5877 4.32067 58.1241 5.61444 58.1251 6.96376C58.1236 8.31292 57.587 9.6064 56.633 10.5604C55.679 11.5144 54.3855 12.051 53.0364 12.0525C50.2314 12.0525 47.9476 9.77063 47.9476 6.96376C47.9476 4.15688 50.2314 1.87501 53.0364 1.87501ZM1.87513 6.96376C1.87613 5.61444 2.41258 4.32067 3.36669 3.36656C4.3208 2.41245 5.61457 1.876 6.96388 1.87501C8.31305 1.8765 9.60652 2.41311 10.5605 3.36711C11.5145 4.32111 12.0511 5.61459 12.0526 6.96376C12.0526 9.76876 9.77076 12.0525 6.96388 12.0525C4.15701 12.0525 1.87513 9.76876 1.87513 6.96376ZM6.96388 58.125C5.61457 58.124 4.3208 57.5876 3.36669 56.6334C2.41258 55.6793 1.87613 54.3856 1.87513 53.0363C1.87662 51.6871 2.41323 50.3936 3.36724 49.4396C4.32124 48.4856 5.61472 47.949 6.96388 47.9475C9.76888 47.9475 12.0526 50.2294 12.0526 53.0363C12.0526 55.8431 9.76888 58.125 6.96388 58.125ZM58.1251 53.0363C58.1241 54.3856 57.5877 55.6793 56.6336 56.6334C55.6795 57.5876 54.3857 58.124 53.0364 58.125C51.6872 58.1235 50.3937 57.5869 49.4397 56.6329C48.4857 55.6789 47.9491 54.3854 47.9476 53.0363C47.9476 50.2313 50.2295 47.9475 53.0364 47.9475C55.8433 47.9475 58.1251 50.2313 58.1251 53.0363ZM53.0851 46.0781C53.0683 46.0781 53.0533 46.0725 53.0364 46.0725C51.1895 46.0725 49.4182 46.8062 48.1123 48.1121C46.8063 49.4181 46.0726 51.1894 46.0726 53.0363C46.0726 53.0531 46.0783 53.0681 46.0783 53.085H13.922C13.922 53.0681 13.9276 53.0531 13.9276 53.0363C13.9276 49.4363 11.1864 46.5094 7.68201 46.1456V13.8544C9.26341 13.6913 10.7404 12.9886 11.8646 11.8644C12.9887 10.7403 13.6914 9.26328 13.8545 7.68188H46.1458C46.5095 11.1863 49.4364 13.9275 53.0364 13.9275C53.0533 13.9275 53.0683 13.9219 53.0851 13.9219V46.0781Z" fill="#1F1F1F"/>
</svg>
