<svg width="100" height="100" viewBox="0 0 100 100" fill="none" xmlns="http://www.w3.org/2000/svg">
<rect width="100" height="100" rx="50" fill="#0A1F44"/>
<mask id="mask0_162_1652" style="mask-type:alpha" maskUnits="userSpaceOnUse" x="25" y="25" width="50" height="50">
<rect x="25" y="25" width="50" height="50" fill="#D9D9D9"/>
</mask>
<g mask="url(#mask0_162_1652)">
<path d="M49.9997 43.75L42.708 36.4584L49.9997 29.1667L57.2913 36.4584L49.9997 43.75ZM27.083 66.6667V58.3334C27.083 57.1528 27.491 56.1632 28.307 55.3646C29.1229 54.566 30.1038 54.1667 31.2497 54.1667H38.0726C38.767 54.1667 39.4268 54.3403 40.0518 54.6875C40.6768 55.0347 41.1802 55.5035 41.5622 56.0938C42.5691 57.4479 43.8104 58.507 45.2861 59.2709C46.7618 60.0347 48.333 60.4167 49.9997 60.4167C51.7011 60.4167 53.2896 60.0347 54.7653 59.2709C56.241 58.507 57.465 57.4479 58.4372 56.0938C58.8886 55.5035 59.4181 55.0347 60.0257 54.6875C60.6334 54.3403 61.267 54.1667 61.9268 54.1667H68.7497C69.9302 54.1667 70.9198 54.566 71.7184 55.3646C72.517 56.1632 72.9163 57.1528 72.9163 58.3334V66.6667H58.333V61.9271C57.1177 62.7952 55.807 63.4549 54.4007 63.9063C52.9945 64.3577 51.5275 64.5834 49.9997 64.5834C48.5066 64.5834 47.0483 64.349 45.6247 63.8802C44.2011 63.4115 42.8816 62.7431 41.6663 61.875V66.6667H27.083ZM33.333 52.0834C31.5969 52.0834 30.1212 51.4757 28.9059 50.2604C27.6906 49.0452 27.083 47.5695 27.083 45.8334C27.083 44.0625 27.6906 42.5781 28.9059 41.3802C30.1212 40.1823 31.5969 39.5834 33.333 39.5834C35.1038 39.5834 36.5882 40.1823 37.7861 41.3802C38.984 42.5781 39.583 44.0625 39.583 45.8334C39.583 47.5695 38.984 49.0452 37.7861 50.2604C36.5882 51.4757 35.1038 52.0834 33.333 52.0834ZM66.6663 52.0834C64.9302 52.0834 63.4545 51.4757 62.2393 50.2604C61.024 49.0452 60.4163 47.5695 60.4163 45.8334C60.4163 44.0625 61.024 42.5781 62.2393 41.3802C63.4545 40.1823 64.9302 39.5834 66.6663 39.5834C68.4372 39.5834 69.9216 40.1823 71.1195 41.3802C72.3174 42.5781 72.9163 44.0625 72.9163 45.8334C72.9163 47.5695 72.3174 49.0452 71.1195 50.2604C69.9216 51.4757 68.4372 52.0834 66.6663 52.0834Z" fill="white"/>
</g>
</svg>
